<svg width="1400" height="1400" viewBox="0 0 1400 1400" fill="none" xmlns="http://www.w3.org/2000/svg">
<rect opacity="0.15" x="212.41" y="339.56" width="975.19" height="720.78" fill="url(#paint0_radial_1_282)"/>
<rect opacity="0.1" x="0.409973" y="0.360352" width="1399.19" height="1399.19" fill="url(#paint1_radial_1_282)"/>
<g clip-path="url(#clip0_1_282)">
<mask id="mask0_1_282" style="mask-type:alpha" maskUnits="userSpaceOnUse" x="609" y="609" width="182" height="181">
<path d="M679.966 700.001C677.623 706.298 676.452 714.537 676.452 724.718C676.452 729.065 679.859 732.59 684.063 732.59H715.13C717.652 732.59 719.697 730.476 719.697 727.867C719.697 721.989 720.919 716.951 723.364 712.754C725.809 708.555 729.272 704.672 733.755 701.103C738.339 697.43 743.739 693.442 749.953 689.139C752.383 687.494 755.722 688.338 756.969 691.051L787.911 758.423C794.634 773.061 784.313 789.95 768.642 789.95H732.741C730.846 789.95 729.029 789.198 727.69 787.858C726.35 786.519 725.598 784.702 725.598 782.807V781.125C725.598 766.503 714.137 754.651 700 754.651C685.863 754.651 674.402 766.503 674.402 781.125V782.807C674.402 784.702 673.65 786.519 672.31 787.858C670.971 789.198 669.154 789.95 667.259 789.95H631.358C615.687 789.95 605.366 773.061 612.089 758.423L672.784 626.481C675.25 621.128 679.406 617.035 684.397 614.201C689.49 611.368 695.451 609.95 702.276 609.95C708.491 609.95 713.89 611.105 718.474 613.414C723.058 615.618 726.624 618.819 729.171 623.018C731.718 627.111 732.991 631.938 732.991 637.5C732.991 643.483 731.26 649.203 727.796 654.662C724.434 660.118 718.983 665.156 711.444 669.775C703.295 674.498 696.622 679.115 691.426 683.628C686.231 688.142 682.411 693.599 679.966 700.001Z" fill="#D9D9D9"/>
<path d="M679.299 699.746L679.297 699.752C676.913 706.159 675.738 714.491 675.738 724.718C675.738 729.437 679.442 733.304 684.063 733.304H715.13C718.07 733.304 720.411 730.847 720.411 727.867C720.411 722.089 721.612 717.181 723.981 713.113C726.374 709.003 729.775 705.185 734.2 701.662L734.202 701.66C738.769 698.001 744.153 694.023 750.356 689.728C752.436 688.324 755.266 689.055 756.32 691.349L787.262 758.721C793.783 772.921 783.754 789.236 768.642 789.236H732.741C731.036 789.236 729.4 788.559 728.195 787.353C726.989 786.148 726.312 784.513 726.312 782.807V781.125C726.312 766.132 714.554 753.937 700 753.937C685.447 753.937 673.688 766.132 673.688 781.125V782.807C673.688 784.513 673.011 786.148 671.805 787.353C670.6 788.559 668.964 789.236 667.259 789.236H631.358C616.246 789.236 606.217 772.921 612.738 758.721L673.433 626.779C675.826 621.584 679.866 617.595 684.748 614.823C689.719 612.059 695.551 610.664 702.276 610.664C708.402 610.664 713.687 611.802 718.152 614.051L718.165 614.057C722.629 616.204 726.088 619.312 728.56 623.388L728.565 623.394C731.031 627.358 732.276 632.05 732.276 637.5C732.276 643.337 730.59 648.925 727.192 654.278L727.187 654.286C723.903 659.617 718.552 664.581 711.079 669.161C702.908 673.896 696.196 678.539 690.958 683.09C685.675 687.677 681.784 693.235 679.299 699.746Z" stroke="url(#paint2_linear_1_282)" stroke-opacity="0.2" stroke-width="1.42875"/>
</mask>
<g mask="url(#mask0_1_282)">
<g opacity="0.7">
<path d="M670.341 852.337C703.666 852.337 730.682 825.321 730.682 791.996C730.682 758.67 703.666 731.655 670.341 731.655C637.016 731.655 610 758.67 610 791.996C610 825.321 637.016 852.337 670.341 852.337Z" fill="#5E6AD2"/>
</g>
<path style="mix-blend-mode:luminosity" d="M680.185 634.887C688.285 616.665 714.202 616.826 722.074 635.148L776.214 761.163C780.033 770.053 773.513 779.95 763.838 779.95H636.439C626.692 779.95 620.172 769.917 624.131 761.01L680.185 634.887Z" fill="url(#paint3_linear_1_282)" fill-opacity="0.08"/>
<path d="M721.417 635.429L775.557 761.446C779.173 769.864 772.999 779.235 763.838 779.235H636.439C627.208 779.235 621.034 769.735 624.784 761.3L680.838 635.178C688.682 617.525 713.791 617.681 721.417 635.429Z" stroke="url(#paint4_linear_1_282)" stroke-opacity="0.3" stroke-width="1.42875"/>
<path d="M721.417 635.429L775.557 761.446C779.173 769.864 772.999 779.235 763.838 779.235H636.439C627.208 779.235 621.034 769.735 624.784 761.3L680.838 635.178C688.682 617.525 713.791 617.681 721.417 635.429Z" stroke="url(#paint5_linear_1_282)" stroke-opacity="0.3" stroke-width="1.42875"/>
<path d="M721.417 635.429L775.557 761.446C779.173 769.864 772.999 779.235 763.838 779.235H636.439C627.208 779.235 621.034 769.735 624.784 761.3L680.838 635.178C688.682 617.525 713.791 617.681 721.417 635.429Z" stroke="url(#paint6_linear_1_282)" stroke-opacity="0.3" stroke-width="1.42875"/>
<g opacity="0.3">
<path d="M740.909 703.018C774.234 703.018 801.25 676.003 801.25 642.677C801.25 609.352 774.234 582.336 740.909 582.336C707.584 582.336 680.568 609.352 680.568 642.677C680.568 676.003 707.584 703.018 740.909 703.018Z" fill="#FC7840"/>
</g>
<g opacity="0.7">
<path d="M721.477 703.018C737.858 703.018 751.136 676.003 751.136 642.677C751.136 609.352 737.858 582.336 721.477 582.336C705.097 582.336 691.818 609.352 691.818 642.677C691.818 676.003 705.097 703.018 721.477 703.018Z" fill="#FC7840"/>
</g>
<path style="mix-blend-mode:luminosity" d="M687.706 642.951C692.74 631.509 709.002 631.594 713.916 643.088L763.295 758.57C765.309 763.283 761.853 768.521 756.727 768.521H643.398C638.242 768.521 634.784 763.222 636.861 758.501L687.706 642.951Z" fill="url(#paint7_linear_1_282)" fill-opacity="0.08"/>
<path d="M713.26 643.368L762.638 758.851C764.451 763.093 761.34 767.807 756.727 767.807H643.398C638.757 767.807 635.646 763.038 637.514 758.789L688.359 643.238C693.142 632.369 708.591 632.449 713.26 643.368Z" stroke="url(#paint8_linear_1_282)" stroke-opacity="0.3" stroke-width="1.42875"/>
<path d="M713.26 643.368L762.638 758.851C764.451 763.093 761.34 767.807 756.727 767.807H643.398C638.757 767.807 635.646 763.038 637.514 758.789L688.359 643.238C693.142 632.369 708.591 632.449 713.26 643.368Z" stroke="url(#paint9_linear_1_282)" stroke-opacity="0.3" stroke-width="1.42875"/>
<path d="M713.26 643.368L762.638 758.851C764.451 763.093 761.34 767.807 756.727 767.807H643.398C638.757 767.807 635.646 763.038 637.514 758.789L688.359 643.238C693.142 632.369 708.591 632.449 713.26 643.368Z" stroke="url(#paint10_linear_1_282)" stroke-opacity="0.3" stroke-width="1.42875"/>
</g>
<path d="M679.966 700.001C677.623 706.298 676.452 714.537 676.452 724.718C676.452 729.065 679.859 732.59 684.063 732.59H715.13C717.652 732.59 719.697 730.476 719.697 727.867C719.697 721.989 720.919 716.951 723.364 712.754C725.809 708.555 729.272 704.672 733.755 701.103C738.339 697.43 743.739 693.442 749.953 689.139C752.383 687.494 755.722 688.338 756.969 691.051L787.911 758.423C794.634 773.061 784.313 789.95 768.642 789.95H732.741C730.846 789.95 729.029 789.198 727.69 787.858C726.35 786.519 725.598 784.702 725.598 782.807V781.125C725.598 766.503 714.137 754.651 700 754.651C685.863 754.651 674.402 766.503 674.402 781.125V782.807C674.402 784.702 673.65 786.519 672.31 787.858C670.971 789.198 669.154 789.95 667.259 789.95H631.358C615.687 789.95 605.366 773.061 612.089 758.423L672.784 626.481C675.25 621.128 679.406 617.035 684.397 614.201C689.49 611.368 695.451 609.95 702.276 609.95C708.491 609.95 713.89 611.105 718.474 613.414C723.058 615.618 726.624 618.819 729.171 623.018C731.718 627.111 732.991 631.938 732.991 637.5C732.991 643.483 731.26 649.203 727.796 654.662C724.434 660.118 718.983 665.156 711.444 669.775C703.295 674.498 696.622 679.115 691.426 683.628C686.231 688.142 682.411 693.599 679.966 700.001Z" fill="url(#paint11_linear_1_282)" fill-opacity="0.08"/>
<path d="M679.299 699.746L679.297 699.752C676.913 706.159 675.738 714.491 675.738 724.718C675.738 729.437 679.442 733.304 684.063 733.304H715.13C718.07 733.304 720.411 730.847 720.411 727.867C720.411 722.089 721.612 717.181 723.981 713.113C726.374 709.003 729.775 705.185 734.2 701.662L734.202 701.66C738.769 698.001 744.153 694.023 750.356 689.728C752.436 688.324 755.266 689.055 756.32 691.349L787.262 758.721C793.783 772.921 783.754 789.236 768.642 789.236H732.741C731.036 789.236 729.4 788.559 728.195 787.353C726.989 786.148 726.312 784.513 726.312 782.807V781.125C726.312 766.132 714.554 753.937 700 753.937C685.447 753.937 673.688 766.132 673.688 781.125V782.807C673.688 784.513 673.011 786.148 671.805 787.353C670.6 788.559 668.964 789.236 667.259 789.236H631.358C616.246 789.236 606.217 772.921 612.738 758.721L673.433 626.779C675.826 621.584 679.866 617.595 684.748 614.823C689.719 612.059 695.551 610.664 702.276 610.664C708.402 610.664 713.687 611.802 718.152 614.051L718.165 614.057C722.629 616.204 726.088 619.312 728.56 623.388L728.565 623.394C731.031 627.358 732.276 632.05 732.276 637.5C732.276 643.337 730.59 648.925 727.192 654.278L727.187 654.286C723.903 659.617 718.552 664.581 711.079 669.161C702.908 673.896 696.196 678.539 690.958 683.09C685.675 687.677 681.784 693.235 679.299 699.746Z" stroke="url(#paint12_linear_1_282)" stroke-opacity="0.3" stroke-width="1.42875"/>
<path d="M679.299 699.746L679.297 699.752C676.913 706.159 675.738 714.491 675.738 724.718C675.738 729.437 679.442 733.304 684.063 733.304H715.13C718.07 733.304 720.411 730.847 720.411 727.867C720.411 722.089 721.612 717.181 723.981 713.113C726.374 709.003 729.775 705.185 734.2 701.662L734.202 701.66C738.769 698.001 744.153 694.023 750.356 689.728C752.436 688.324 755.266 689.055 756.32 691.349L787.262 758.721C793.783 772.921 783.754 789.236 768.642 789.236H732.741C731.036 789.236 729.4 788.559 728.195 787.353C726.989 786.148 726.312 784.513 726.312 782.807V781.125C726.312 766.132 714.554 753.937 700 753.937C685.447 753.937 673.688 766.132 673.688 781.125V782.807C673.688 784.513 673.011 786.148 671.805 787.353C670.6 788.559 668.964 789.236 667.259 789.236H631.358C616.246 789.236 606.217 772.921 612.738 758.721L673.433 626.779C675.826 621.584 679.866 617.595 684.748 614.823C689.719 612.059 695.551 610.664 702.276 610.664C708.402 610.664 713.687 611.802 718.152 614.051L718.165 614.057C722.629 616.204 726.088 619.312 728.56 623.388L728.565 623.394C731.031 627.358 732.276 632.05 732.276 637.5C732.276 643.337 730.59 648.925 727.192 654.278L727.187 654.286C723.903 659.617 718.552 664.581 711.079 669.161C702.908 673.896 696.196 678.539 690.958 683.09C685.675 687.677 681.784 693.235 679.299 699.746Z" stroke="url(#paint13_linear_1_282)" stroke-opacity="0.1" stroke-width="1.42875"/>
<path d="M679.299 699.746L679.297 699.752C676.913 706.159 675.738 714.491 675.738 724.718C675.738 729.437 679.442 733.304 684.063 733.304H715.13C718.07 733.304 720.411 730.847 720.411 727.867C720.411 722.089 721.612 717.181 723.981 713.113C726.374 709.003 729.775 705.185 734.2 701.662L734.202 701.66C738.769 698.001 744.153 694.023 750.356 689.728C752.436 688.324 755.266 689.055 756.32 691.349L787.262 758.721C793.783 772.921 783.754 789.236 768.642 789.236H732.741C731.036 789.236 729.4 788.559 728.195 787.353C726.989 786.148 726.312 784.513 726.312 782.807V781.125C726.312 766.132 714.554 753.937 700 753.937C685.447 753.937 673.688 766.132 673.688 781.125V782.807C673.688 784.513 673.011 786.148 671.805 787.353C670.6 788.559 668.964 789.236 667.259 789.236H631.358C616.246 789.236 606.217 772.921 612.738 758.721L673.433 626.779C675.826 621.584 679.866 617.595 684.748 614.823C689.719 612.059 695.551 610.664 702.276 610.664C708.402 610.664 713.687 611.802 718.152 614.051L718.165 614.057C722.629 616.204 726.088 619.312 728.56 623.388L728.565 623.394C731.031 627.358 732.276 632.05 732.276 637.5C732.276 643.337 730.59 648.925 727.192 654.278L727.187 654.286C723.903 659.617 718.552 664.581 711.079 669.161C702.908 673.896 696.196 678.539 690.958 683.09C685.675 687.677 681.784 693.235 679.299 699.746Z" stroke="url(#paint14_linear_1_282)" stroke-opacity="0.1" stroke-width="1.42875"/>
</g>
<defs>
<radialGradient id="paint0_radial_1_282" cx="0" cy="0" r="1" gradientUnits="userSpaceOnUse" gradientTransform="translate(700.005 699.95) scale(689.563 509.668)">
<stop stop-color="#5E6AD2"/>
<stop offset="0.3" stop-color="#056AD2" stop-opacity="0.2"/>
<stop offset="0.5" stop-opacity="0"/>
</radialGradient>
<radialGradient id="paint1_radial_1_282" cx="0" cy="0" r="1" gradientUnits="userSpaceOnUse" gradientTransform="translate(700.005 699.955) scale(989.377)">
<stop stop-color="#FC7840"/>
<stop offset="0.3" stop-color="#FC7840" stop-opacity="0.2"/>
<stop offset="0.5" stop-opacity="0"/>
</radialGradient>
<linearGradient id="paint2_linear_1_282" x1="626.831" y1="789.738" x2="732.454" y2="664.92" gradientUnits="userSpaceOnUse">
<stop stop-color="#5E6AD2"/>
<stop offset="1" stop-color="#5E6AD2" stop-opacity="0"/>
</linearGradient>
<linearGradient id="paint3_linear_1_282" x1="699.408" y1="757.951" x2="699.408" y2="615.709" gradientUnits="userSpaceOnUse">
<stop stop-color="white"/>
<stop offset="1" stop-color="white" stop-opacity="0"/>
</linearGradient>
<linearGradient id="paint4_linear_1_282" x1="699.408" y1="615.709" x2="699.408" y2="757.951" gradientUnits="userSpaceOnUse">
<stop stop-color="white" stop-opacity="0.8"/>
<stop offset="1" stop-color="white" stop-opacity="0.25"/>
</linearGradient>
<linearGradient id="paint5_linear_1_282" x1="721.692" y1="612.687" x2="674.807" y2="657.369" gradientUnits="userSpaceOnUse">
<stop stop-color="#FC7840"/>
<stop offset="1" stop-color="#FC7840" stop-opacity="0"/>
</linearGradient>
<linearGradient id="paint6_linear_1_282" x1="631.475" y1="779.723" x2="746.164" y2="661.257" gradientUnits="userSpaceOnUse">
<stop stop-color="#5E6AD2"/>
<stop offset="1" stop-color="#5E6AD2" stop-opacity="0"/>
</linearGradient>
<linearGradient id="paint7_linear_1_282" x1="699.6" y1="701.996" x2="699.6" y2="631.783" gradientUnits="userSpaceOnUse">
<stop stop-color="white"/>
<stop offset="1" stop-color="white" stop-opacity="0"/>
</linearGradient>
<linearGradient id="paint8_linear_1_282" x1="699.6" y1="631.784" x2="699.6" y2="740.308" gradientUnits="userSpaceOnUse">
<stop stop-color="white" stop-opacity="0.8"/>
<stop offset="1" stop-color="white" stop-opacity="0.25"/>
</linearGradient>
<linearGradient id="paint9_linear_1_282" x1="717.386" y1="633.472" x2="679.545" y2="669.268" gradientUnits="userSpaceOnUse">
<stop stop-color="#FC7840"/>
<stop offset="1" stop-color="#FC7840" stop-opacity="0"/>
</linearGradient>
<linearGradient id="paint10_linear_1_282" x1="645.085" y1="768.338" x2="737.705" y2="673.377" gradientUnits="userSpaceOnUse">
<stop stop-color="#5E6AD2"/>
<stop offset="1" stop-color="#5E6AD2" stop-opacity="0"/>
</linearGradient>
<linearGradient id="paint11_linear_1_282" x1="700" y1="789.95" x2="700" y2="609.95" gradientUnits="userSpaceOnUse">
<stop stop-color="white"/>
<stop offset="1" stop-color="white" stop-opacity="0"/>
</linearGradient>
<linearGradient id="paint12_linear_1_282" x1="700" y1="609.95" x2="700" y2="789.95" gradientUnits="userSpaceOnUse">
<stop stop-color="white" stop-opacity="0.8"/>
<stop offset="1" stop-color="white" stop-opacity="0.25"/>
</linearGradient>
<linearGradient id="paint13_linear_1_282" x1="723.164" y1="633.839" x2="679.517" y2="681.427" gradientUnits="userSpaceOnUse">
<stop stop-color="#FC7840"/>
<stop offset="1" stop-color="#FC7840" stop-opacity="0"/>
</linearGradient>
<linearGradient id="paint14_linear_1_282" x1="626.831" y1="789.738" x2="732.454" y2="664.92" gradientUnits="userSpaceOnUse">
<stop stop-color="#5E6AD2"/>
<stop offset="1" stop-color="#5E6AD2" stop-opacity="0"/>
</linearGradient>
<clipPath id="clip0_1_282">
<rect width="180" height="180" fill="white" transform="translate(610 609.95)"/>
</clipPath>
</defs>
</svg>
