<svg width="18" height="19" viewBox="0 0 18 19" fill="none" xmlns="http://www.w3.org/2000/svg">
<path d="M4.44538 12.0312C4.44538 12.9467 3.70612 13.6865 2.79144 13.6865C1.87677 13.6865 1.13751 12.9467 1.13751 12.0312C1.13751 11.1158 1.87677 10.376 2.79144 10.376H4.44538V12.0312ZM5.27235 12.0312C5.27235 11.1158 6.01162 10.376 6.92629 10.376C7.84097 10.376 8.58023 11.1158 8.58023 12.0312V16.1693C8.58023 17.0848 7.84097 17.8247 6.92629 17.8247C6.01162 17.8247 5.27235 17.0848 5.27235 16.1693V12.0312Z" fill="#8A8F98"/>
<path d="M6.92631 5.38522C6.01164 5.38522 5.27237 4.64537 5.27237 3.72996C5.27237 2.81456 6.01164 2.07471 6.92631 2.07471C7.84099 2.07471 8.58025 2.81456 8.58025 3.72996V5.38522H6.92631ZM6.92631 6.22539C7.84099 6.22539 8.58025 6.96523 8.58025 7.88063C8.58025 8.79605 7.84099 9.53589 6.92631 9.53589H2.77894C1.86426 9.53589 1.125 8.79605 1.125 7.88063C1.125 6.96523 1.86426 6.22539 2.77894 6.22539H6.92631Z" fill="#8A8F98"/>
<path d="M13.5546 7.88063C13.5546 6.96523 14.2938 6.22539 15.2085 6.22539C16.1232 6.22539 16.8625 6.96523 16.8625 7.88063C16.8625 8.79605 16.1232 9.53589 15.2085 9.53589H13.5546V7.88063ZM12.7276 7.88063C12.7276 8.79605 11.9883 9.53589 11.0737 9.53589C10.159 9.53589 9.41974 8.79605 9.41974 7.88063V3.72996C9.41974 2.81456 10.159 2.07471 11.0737 2.07471C11.9883 2.07471 12.7276 2.81456 12.7276 3.72996V7.88063Z" fill="#8A8F98"/>
<path d="M11.0737 14.5141C11.9883 14.5141 12.7276 15.2539 12.7276 16.1693C12.7276 17.0848 11.9883 17.8247 11.0737 17.8247C10.159 17.8247 9.41974 17.0848 9.41974 16.1693V14.5141H11.0737ZM11.0737 13.6865C10.159 13.6865 9.41974 12.9467 9.41974 12.0312C9.41974 11.1158 10.159 10.376 11.0737 10.376H15.221C16.1358 10.376 16.875 11.1158 16.875 12.0312C16.875 12.9467 16.1358 13.6865 15.221 13.6865H11.0737Z" fill="#8A8F98"/>
</svg>
