<svg width="635" height="168" viewBox="0 0 635 168" fill="none" xmlns="http://www.w3.org/2000/svg">
<g clip-path="url(#clip0_1_217)">
<g clip-path="url(#clip1_1_217)">
<path opacity="0.05" d="M317.15 329.44C452.874 329.44 562.9 219.414 562.9 83.6899C562.9 -52.034 452.874 -162.06 317.15 -162.06C181.426 -162.06 71.4 -52.034 71.4 83.6899C71.4 219.414 181.426 329.44 317.15 329.44Z" stroke="#4CB782" stroke-width="0.5"/>
<path opacity="0.08" d="M317.15 260.44C414.766 260.44 493.9 181.306 493.9 83.6899C493.9 -13.9264 414.766 -93.0601 317.15 -93.0601C219.534 -93.0601 140.4 -13.9264 140.4 83.6899C140.4 181.306 219.534 260.44 317.15 260.44Z" stroke="#4CB782" stroke-width="0.5"/>
<path opacity="0.1" d="M317.15 199.44C381.077 199.44 432.9 147.617 432.9 83.6899C432.9 19.763 381.077 -32.0601 317.15 -32.0601C253.223 -32.0601 201.4 19.763 201.4 83.6899C201.4 147.617 253.223 199.44 317.15 199.44Z" stroke="#4CB782" stroke-width="0.5"/>
<path opacity="0.15" d="M317.15 151.44C354.567 151.44 384.9 121.107 384.9 83.6899C384.9 46.2726 354.567 15.9399 317.15 15.9399C279.733 15.9399 249.4 46.2726 249.4 83.6899C249.4 121.107 279.733 151.44 317.15 151.44Z" stroke="#4CB782" stroke-width="0.5"/>
<path fill-rule="evenodd" clip-rule="evenodd" d="M162.388 74.2267C160.658 73.1807 161.382 75.3587 161.382 76.8117C161.382 78.2637 159.933 80.4147 159.208 81.1687C158.484 81.9227 157.759 82.6207 157.759 82.6207C156.517 83.9207 156.31 85.5227 156.31 86.9787V87.0177C156.31 91.0067 159.554 94.2407 163.556 94.2407C167.558 94.2407 170.802 91.0067 170.802 87.0177V81.1977C170.802 79.9737 168.848 81.1387 167.904 81.9227L166.454 83.3087V80.5177C166.454 79.5077 166.218 78.5116 165.765 77.6088C165.312 76.7059 164.655 75.9211 163.846 75.3167L162.388 74.2267ZM163.556 92.7887C161.745 92.7887 159.933 92.1547 159.933 89.6197C159.933 87.6367 161.41 85.6867 162.632 84.6777C163.035 84.3447 163.556 84.6597 163.556 85.1827V87.7177C163.556 88.2407 164.092 88.5927 164.57 88.3837L166.165 87.6857C166.643 87.4767 167.185 87.8287 167.155 88.3517C167.05 90.1817 166.495 92.7887 163.556 92.7887Z" fill="#6B6F76"/>
<g opacity="0.5">
<path d="M312.33 66.0581C312.058 63.4601 311.813 61.1151 314.666 62.8411L317.805 65.1881C319.535 66.4799 320.943 68.1548 321.918 70.0817C322.892 72.0085 323.408 74.1348 323.423 76.2941C313.943 76.2941 306.257 83.9791 306.257 93.4601C306.257 97.5391 307.681 101.287 310.058 104.232C305.021 101.652 301.576 96.4211 301.576 90.3881V90.3031C301.576 87.1681 302.021 83.7171 304.697 80.9191C304.697 80.9191 306.257 79.4151 307.818 77.7911C309.378 76.1671 312.499 71.5351 312.499 68.4071C312.499 67.6731 312.414 66.8541 312.33 66.0581ZM332.786 79.0701V77.8541C332.786 76.2471 331.223 76.5511 329.541 77.4161C330.687 77.8531 331.774 78.4101 332.786 79.0701Z" fill="#4CB782"/>
</g>
<path fill-rule="evenodd" clip-rule="evenodd" d="M323.423 105.944C330.318 105.944 335.907 100.354 335.907 93.4601C335.907 86.5651 330.318 80.9751 323.423 80.9751C316.528 80.9751 310.939 86.5651 310.939 93.4601C310.939 100.354 316.528 105.944 323.423 105.944ZM330.171 90.6581C330.71 90.0481 330.681 89.0901 330.106 88.5191C329.973 88.3838 329.813 88.2776 329.637 88.2073C329.461 88.137 329.272 88.104 329.082 88.1105C328.893 88.117 328.707 88.1628 328.536 88.245C328.365 88.3272 328.212 88.444 328.089 88.5881L321.906 95.5841L318.664 92.5271C318.527 92.3957 318.365 92.2941 318.187 92.2288C318.008 92.1635 317.819 92.1359 317.629 92.1477C317.44 92.1596 317.255 92.2106 317.087 92.2976C316.918 92.3846 316.769 92.5056 316.65 92.6531C316.398 92.9589 316.27 93.3487 316.291 93.7447C316.313 94.1407 316.483 94.5139 316.768 94.7901L320.356 98.1731C321.32 99.0811 322.789 99.0101 323.671 98.0131L330.171 90.6581Z" fill="#4CB782"/>
<path opacity="0.5" d="M236.793 70.7989C236.593 68.8839 236.412 67.1549 238.515 68.4269L240.829 70.1569C242.114 71.1164 243.157 72.3624 243.876 73.7957C244.595 75.2291 244.97 76.8103 244.971 78.4139V82.8459L247.271 80.6449C248.77 79.3999 251.873 77.5499 251.873 79.4949V87.1719C249.952 86.2609 247.749 86.1464 245.744 86.8532C243.739 87.5599 242.095 89.0308 241.17 90.9449C240.937 90.8706 240.734 90.724 240.59 90.5264C240.446 90.3288 240.368 90.0904 240.369 89.8459V85.8209C240.369 84.9899 239.541 84.4909 238.902 85.0199C236.962 86.6209 234.617 89.7169 234.617 92.8649C234.617 96.8899 237.493 97.8959 240.369 97.8959C240.632 97.8959 240.884 97.8829 241.123 97.8579C241.491 98.6423 241.982 99.3624 242.578 99.9909C241.863 100.13 241.125 100.202 240.369 100.202C234.015 100.202 228.865 95.0679 228.865 88.7349V88.6719C228.865 86.3609 229.193 83.8169 231.166 81.7539C231.166 81.7539 232.316 80.6449 233.466 79.4479C234.617 78.2509 236.918 74.8359 236.918 72.5299C236.918 71.9899 236.854 71.3849 236.793 70.7989Z" fill="#F2C94C"/>
<path d="M248.421 99.627C251.28 99.627 253.598 97.3091 253.598 94.45C253.598 91.5908 251.28 89.2729 248.421 89.2729C245.562 89.2729 243.244 91.5908 243.244 94.45C243.244 97.3091 245.562 99.627 248.421 99.627Z" fill="#F2C94C"/>
<path opacity="0.5" d="M390.418 70.7989C390.218 68.8839 390.037 67.1549 392.14 68.4269L394.454 70.1569C395.739 71.1164 396.782 72.3624 397.501 73.7957C398.22 75.2291 398.595 76.8103 398.596 78.4139V82.8459L400.896 80.6449C402.395 79.3999 405.498 77.5499 405.498 79.4949V87.1719C403.577 86.2609 401.374 86.1464 399.369 86.8532C397.364 87.5599 395.72 89.0308 394.795 90.9449C394.562 90.8706 394.359 90.724 394.215 90.5264C394.071 90.3288 393.993 90.0904 393.994 89.8459V85.8209C393.994 84.9899 393.166 84.4909 392.527 85.0199C390.587 86.6209 388.242 89.7169 388.242 92.8649C388.242 96.8899 391.118 97.8959 393.994 97.8959C394.257 97.8959 394.509 97.8829 394.748 97.8579C395.116 98.6423 395.607 99.3624 396.203 99.9909C395.488 100.13 394.75 100.202 393.994 100.202C387.64 100.202 382.49 95.0679 382.49 88.7349V88.6719C382.49 86.3609 382.818 83.8169 384.791 81.7539C384.791 81.7539 385.941 80.6449 387.091 79.4479C388.242 78.2509 390.543 74.8359 390.543 72.5299C390.543 71.9899 390.479 71.3849 390.418 70.7989Z" fill="#FC7840"/>
<path d="M402.046 99.627C404.905 99.627 407.223 97.3091 407.223 94.45C407.223 91.5908 404.905 89.2729 402.046 89.2729C399.187 89.2729 396.869 91.5908 396.869 94.45C396.869 97.3091 399.187 99.627 402.046 99.627Z" fill="#FC7840"/>
<path opacity="0.5" d="M468.602 75.9008C468.479 74.7208 468.367 73.6558 469.663 74.4398L471.09 75.5058C471.882 76.0973 472.525 76.8653 472.968 77.7487C473.411 78.6321 473.642 79.6066 473.642 80.5948V83.3259L475.06 81.9698C475.983 81.2018 477.896 80.0618 477.896 81.2608V85.6689C477.491 85.5098 477.048 85.4723 476.622 85.5611C476.196 85.6499 475.805 85.8611 475.497 86.1689L474.351 87.3148L473.205 86.1689C472.897 85.8611 472.506 85.6499 472.08 85.5611C471.654 85.4723 471.211 85.5098 470.806 85.6689V85.1588C470.806 84.6468 470.296 84.3399 469.902 84.6649C468.707 85.6519 467.261 87.5598 467.261 89.4998C467.261 91.3648 468.263 92.1778 469.512 92.4668C469.351 92.931 469.347 93.4349 469.499 93.9019C466.208 93.2909 463.716 90.4128 463.716 86.9548V86.9158C463.716 85.4918 463.918 83.9238 465.134 82.6528C465.134 82.6528 465.843 81.9699 466.552 81.2319C467.261 80.4939 468.679 78.3899 468.679 76.9689C468.679 76.6349 468.64 76.2628 468.602 75.9008Z" fill="#EB5757"/>
<path d="M472.203 87.1718L474.351 89.3198L476.499 87.1718C476.652 87.0183 476.861 86.9321 477.078 86.9321C477.294 86.9321 477.503 87.0183 477.656 87.1718C477.809 87.3252 477.896 87.5333 477.896 87.7503C477.896 87.9672 477.809 88.1753 477.656 88.3288L475.508 90.4768L477.656 92.6248C477.809 92.7782 477.896 92.9863 477.896 93.2033C477.896 93.4202 477.809 93.6283 477.656 93.7818C477.503 93.9352 477.294 94.0214 477.078 94.0214C476.861 94.0214 476.652 93.9352 476.499 93.7818L474.351 91.6338L472.203 93.7818C472.127 93.8577 472.037 93.918 471.938 93.9591C471.838 94.0002 471.732 94.0214 471.625 94.0214C471.517 94.0214 471.411 94.0002 471.311 93.9591C471.212 93.918 471.122 93.8577 471.046 93.7818C470.97 93.7058 470.91 93.6156 470.869 93.5163C470.828 93.4171 470.806 93.3107 470.806 93.2033C470.806 93.0958 470.828 92.9894 470.869 92.8902C470.91 92.7909 470.97 92.7007 471.046 92.6248L473.194 90.4768L471.046 88.3288C470.97 88.2528 470.91 88.1626 470.869 88.0633C470.828 87.9641 470.806 87.8577 470.806 87.7503C470.806 87.6428 470.828 87.5364 470.869 87.4372C470.91 87.3379 470.97 87.2477 471.046 87.1718C471.122 87.0958 471.212 87.0355 471.311 86.9944C471.411 86.9533 471.517 86.9321 471.625 86.9321C471.732 86.9321 471.838 86.9533 471.938 86.9944C472.037 87.0355 472.127 87.0958 472.203 87.1718Z" fill="#EB5757"/>
</g>
</g>
<defs>
<clipPath id="clip0_1_217">
<rect width="634.3" height="167" fill="white" transform="translate(0 0.189941)"/>
</clipPath>
<clipPath id="clip1_1_217">
<rect width="492" height="492" fill="white" transform="translate(71.15 -162.31)"/>
</clipPath>
</defs>
</svg>
