<svg width="18" height="19" viewBox="0 0 18 19" fill="none" xmlns="http://www.w3.org/2000/svg">
<path fill-rule="evenodd" clip-rule="evenodd" d="M12.9518 3.15776C11.7451 2.43572 10.4289 2.07471 8.99939 2.07471C7.5711 2.07471 6.25365 2.43572 5.04645 3.15776C3.84107 3.87918 2.88523 4.85846 2.18138 6.09498C1.47631 7.33276 1.125 8.6825 1.125 10.1473C1.125 11.9059 1.62593 13.4871 2.62719 14.8921C3.62845 16.2948 4.92167 17.2696 6.50806 17.8073C6.6922 17.8425 6.82909 17.818 6.91752 17.7337C7.00657 17.6489 7.05078 17.5451 7.05078 17.4193L7.04594 16.8501C7.04231 16.4929 7.03988 16.1815 7.03988 15.9148L6.80487 15.9564C6.65464 15.9847 6.46444 15.9966 6.23548 15.9928C6.00713 15.9897 5.76908 15.9651 5.52315 15.9192C5.27905 15.874 5.05069 15.7696 4.83868 15.6048C4.62669 15.44 4.47646 15.2242 4.38742 14.9583L4.28445 14.7155C4.21661 14.5544 4.10879 14.3758 3.9622 14.1808C3.81501 13.9833 3.66661 13.85 3.51639 13.7802L3.4437 13.728C3.39647 13.6927 3.35285 13.6512 3.31045 13.6022C3.26987 13.5531 3.23957 13.5041 3.21959 13.455C3.19899 13.4046 3.21535 13.365 3.26987 13.3336C3.32437 13.3009 3.42371 13.2864 3.56667 13.2864L3.77261 13.3179C3.9083 13.3456 4.0779 13.4298 4.2796 13.5694C4.48131 13.7104 4.64727 13.8921 4.7763 14.1166C4.93379 14.4035 5.12337 14.6223 5.34567 14.7733C5.56797 14.9243 5.7921 14.9997 6.01803 14.9997C6.24214 14.9997 6.43779 14.9809 6.60194 14.9469C6.76549 14.9117 6.91995 14.8588 7.06229 14.7896C7.12529 14.3191 7.29246 13.9581 7.56504 13.7059C7.17617 13.6632 6.82606 13.6003 6.51533 13.516C6.20398 13.4323 5.88295 13.2958 5.55222 13.1059C5.21908 12.9173 4.94469 12.6833 4.72602 12.4015C4.50797 12.1235 4.32807 11.7537 4.18875 11.3008C4.04943 10.8436 3.97856 10.3197 3.97856 9.72342C3.97856 8.87621 4.2475 8.15418 4.78781 7.55793C4.53462 6.92017 4.55763 6.20568 4.86049 5.41319C5.05735 5.3503 5.35113 5.39747 5.74121 5.55471C6.13069 5.71195 6.41538 5.84717 6.59649 5.95849C6.7782 6.07171 6.92359 6.16606 7.03261 6.24278C7.66681 6.06416 8.3222 5.97422 8.99939 5.97422C9.6766 5.97422 10.332 6.06542 10.968 6.24719L11.3574 5.99435C11.624 5.82642 11.9389 5.67359 12.3012 5.53207C12.6646 5.39244 12.942 5.35408 13.1335 5.41697C13.4406 6.20945 13.4684 6.92332 13.2153 7.5617C13.7544 8.1567 14.0245 8.87873 14.0245 9.72656C14.0245 10.3216 13.9542 10.8493 13.8143 11.3084C13.6749 11.7675 13.4933 12.1373 13.2704 12.4135C13.0487 12.6901 12.7725 12.9229 12.4405 13.1128C12.1092 13.3016 11.7863 13.438 11.4774 13.5216C11.1661 13.606 10.8172 13.6689 10.4259 13.7104C10.7814 14.0248 10.9589 14.5218 10.9589 15.2028V17.4212C10.9589 17.547 11.0013 17.6514 11.0873 17.7357C11.1721 17.8194 11.3071 17.8444 11.492 17.8092C13.0789 17.2683 14.3715 16.2972 15.3728 14.8909C16.374 13.4883 16.875 11.9053 16.875 10.1473C16.875 8.68313 16.5224 7.33276 15.8186 6.09561C15.1142 4.85909 14.1589 3.87981 12.9536 3.15839L12.9518 3.15776Z" fill="#8A8F98"/>
</svg>
