<svg width="588" height="295" viewBox="0 0 588 295" fill="none" xmlns="http://www.w3.org/2000/svg">
<g clip-path="url(#clip0_1_152)">
<g clip-path="url(#clip1_1_152)">
<path d="M300.248 87.7559L300.317 107.706L309.828 107.71C312.383 107.71 313.886 110.292 312.431 112.182L293.434 136.875C291.667 139.172 287.665 138.046 287.665 135.252L287.661 115.325L278.172 115.327C275.621 115.327 274.117 112.751 275.564 110.86L294.474 86.1489C296.234 83.8489 300.238 84.9629 300.248 87.7559Z" fill="url(#paint0_linear_1_152)"/>
<path opacity="0.05" d="M294 356.66C429.724 356.66 539.75 246.634 539.75 110.91C539.75 -24.8141 429.724 -134.84 294 -134.84C158.276 -134.84 48.25 -24.8141 48.25 110.91C48.25 246.634 158.276 356.66 294 356.66Z" stroke="#8888E4" stroke-width="0.5"/>
<path opacity="0.1" d="M294 287.66C391.616 287.66 470.75 208.526 470.75 110.91C470.75 13.2936 391.616 -65.8401 294 -65.8401C196.384 -65.8401 117.25 13.2936 117.25 110.91C117.25 208.526 196.384 287.66 294 287.66Z" stroke="#8888E4" stroke-width="0.5"/>
<path opacity="0.2" d="M294 226.66C357.927 226.66 409.75 174.837 409.75 110.91C409.75 46.9832 357.927 -4.83984 294 -4.83984C230.073 -4.83984 178.25 46.9832 178.25 110.91C178.25 174.837 230.073 226.66 294 226.66Z" stroke="#8888E4" stroke-width="0.5"/>
<path opacity="0.3" d="M294 178.66C331.417 178.66 361.75 148.327 361.75 110.91C361.75 73.4929 331.417 43.1602 294 43.1602C256.583 43.1602 226.25 73.4929 226.25 110.91C226.25 148.327 256.583 178.66 294 178.66Z" stroke="#8888E4" stroke-width="0.5"/>
</g>
</g>
<defs>
<linearGradient id="paint0_linear_1_152" x1="294" y1="84.9099" x2="294" y2="138.108" gradientUnits="userSpaceOnUse">
<stop stop-color="#464998"/>
<stop offset="1" stop-color="#8888E4"/>
</linearGradient>
<clipPath id="clip0_1_152">
<rect width="588" height="366.38" fill="white" transform="translate(0 -72.28)"/>
</clipPath>
<clipPath id="clip1_1_152">
<rect width="492" height="492" fill="white" transform="translate(48 -135.09)"/>
</clipPath>
</defs>
</svg>
