<svg width="63" height="20" viewBox="0 0 63 20" fill="none" xmlns="http://www.w3.org/2000/svg">
<g clip-path="url(#clip0_1_130)">
<path d="M0.196066 11.5036C0.160466 11.3518 0.341262 11.2562 0.451486 11.3664L6.29347 17.2084C6.4037 17.3186 6.30811 17.4994 6.15635 17.4638C3.20824 16.7723 0.887646 14.4517 0.196066 11.5036ZM0.000302615 9.16217C-0.00252038 9.20749 0.0145222 9.25175 0.0466341 9.28386L8.37605 17.6133C8.40816 17.6454 8.45242 17.6625 8.49774 17.6596C8.87682 17.636 9.24875 17.586 9.61173 17.5115C9.73405 17.4863 9.77654 17.3361 9.68824 17.2478L0.412152 7.97167C0.323854 7.88337 0.173565 7.92586 0.148444 8.04818C0.0738978 8.41116 0.023913 8.78309 0.000302615 9.16217ZM0.673749 6.41277C0.64711 6.47258 0.660678 6.54247 0.706973 6.58877L11.0711 16.9529C11.1174 16.9992 11.1873 17.0128 11.2471 16.9862C11.5329 16.8589 11.8099 16.7153 12.0768 16.5567C12.1652 16.5042 12.1788 16.3829 12.1061 16.3102L1.34971 5.55378C1.27705 5.48113 1.15567 5.49476 1.10319 5.58309C0.944576 5.85004 0.801038 6.127 0.673749 6.41277ZM2.02539 4.55175C1.96618 4.49253 1.96251 4.39756 2.0183 4.3351C3.48472 2.6934 5.61782 1.65991 7.9923 1.65991C12.4148 1.65991 16 5.24508 16 9.6676C16 12.0421 14.9665 14.1752 13.3248 15.6416C13.2624 15.6974 13.1674 15.6937 13.1081 15.6345L2.02539 4.55175Z" fill="#828FFF"/>
</g>
<path d="M24.9325 14.1599V4.70537H26.6452V12.7242H30.8093V14.1599H24.9325ZM32.1019 14.1599V7.069H33.7731V14.1599H32.1019ZM32.9421 6.06261C32.6775 6.06261 32.4497 5.9749 32.2589 5.79947C32.0681 5.62097 31.9727 5.40707 31.9727 5.15778C31.9727 4.90541 32.0681 4.69152 32.2589 4.51609C32.4497 4.33759 32.6775 4.24834 32.9421 4.24834C33.2099 4.24834 33.4376 4.33759 33.6254 4.51609C33.8162 4.69152 33.9116 4.90541 33.9116 5.15778C33.9116 5.40707 33.8162 5.62097 33.6254 5.79947C33.4376 5.9749 33.2099 6.06261 32.9421 6.06261ZM37.0428 10.0051V14.1599H35.3716V7.069H36.9689V8.2739H37.052C37.2151 7.87689 37.4752 7.56143 37.8322 7.32753C38.1923 7.09362 38.637 6.97667 39.1663 6.97667C39.6557 6.97667 40.0819 7.08131 40.4451 7.29059C40.8113 7.49987 41.0945 7.80302 41.2945 8.20004C41.4977 8.59706 41.5977 9.07871 41.5946 9.645V14.1599H39.9234V9.90352C39.9234 9.42956 39.8003 9.0587 39.5541 8.79095C39.311 8.52319 38.974 8.38932 38.5431 8.38932C38.2507 8.38932 37.9907 8.45395 37.7629 8.58321C37.5383 8.70939 37.3613 8.89251 37.232 9.13257C37.1059 9.37263 37.0428 9.66346 37.0428 10.0051ZM46.3127 14.2984C45.6017 14.2984 44.9877 14.1507 44.4707 13.8552C43.9567 13.5567 43.5613 13.1351 43.2843 12.5903C43.0073 12.0425 42.8688 11.3977 42.8688 10.656C42.8688 9.9266 43.0073 9.28645 43.2843 8.73555C43.5643 8.18157 43.9552 7.7507 44.4568 7.44294C44.9585 7.13209 45.5479 6.97667 46.225 6.97667C46.662 6.97667 47.0744 7.04746 47.4622 7.18903C47.853 7.32753 48.1977 7.54296 48.4963 7.83534C48.7979 8.12771 49.0349 8.50011 49.2072 8.95253C49.3796 9.40186 49.4657 9.93737 49.4657 10.5591V11.0715H43.6536V9.94507H47.8638C47.8607 9.62499 47.7915 9.34031 47.6561 9.09102C47.5207 8.83865 47.3314 8.64014 47.0882 8.49549C46.8482 8.35084 46.5681 8.27852 46.248 8.27852C45.9064 8.27852 45.6064 8.36162 45.3478 8.52781C45.0893 8.69093 44.8877 8.90636 44.7431 9.17412C44.6015 9.43879 44.5292 9.72963 44.5261 10.0466V11.0299C44.5261 11.4423 44.6015 11.7963 44.7523 12.0917C44.9031 12.3841 45.1139 12.6088 45.3848 12.7657C45.6556 12.9196 45.9726 12.9966 46.3358 12.9966C46.5789 12.9966 46.7989 12.9627 46.9959 12.895C47.1929 12.8242 47.3637 12.7211 47.5083 12.5857C47.653 12.4503 47.7622 12.2825 47.8361 12.0825L49.3965 12.2579C49.298 12.6703 49.1103 13.0304 48.8333 13.3382C48.5594 13.6429 48.2085 13.8798 47.7807 14.0491C47.3529 14.2153 46.8636 14.2984 46.3127 14.2984ZM52.8 14.303C52.3507 14.303 51.946 14.223 51.5859 14.063C51.2289 13.8999 50.9457 13.6598 50.7364 13.3428C50.5302 13.0258 50.4271 12.6349 50.4271 12.1702C50.4271 11.7701 50.501 11.4393 50.6487 11.1777C50.7965 10.9161 50.998 10.7068 51.2535 10.5498C51.5089 10.3929 51.7967 10.2744 52.1168 10.1944C52.4399 10.1113 52.7738 10.0512 53.1185 10.0143C53.534 9.97123 53.871 9.93276 54.1296 9.8989C54.3881 9.86197 54.5758 9.80657 54.6928 9.73271C54.8128 9.65577 54.8728 9.53728 54.8728 9.37724V9.34954C54.8728 9.00177 54.7697 8.73247 54.5635 8.54166C54.3573 8.35084 54.0603 8.25544 53.6725 8.25544C53.2632 8.25544 52.9385 8.34469 52.6984 8.52319C52.4615 8.7017 52.3014 8.91252 52.2183 9.15565L50.658 8.93406C50.7811 8.50319 50.9842 8.1431 51.2673 7.8538C51.5505 7.56143 51.8967 7.34291 52.306 7.19826C52.7154 7.05054 53.1678 6.97667 53.6633 6.97667C54.0049 6.97667 54.345 7.01668 54.6835 7.0967C55.0221 7.17672 55.3314 7.30906 55.6114 7.49372C55.8915 7.6753 56.1162 7.92305 56.2854 8.23697C56.4578 8.55089 56.544 8.94329 56.544 9.41417V14.1599H54.9374V13.1858H54.882C54.7805 13.3828 54.6374 13.5675 54.4527 13.7398C54.2711 13.9091 54.0418 14.046 53.7649 14.1507C53.4909 14.2522 53.1693 14.303 52.8 14.303ZM53.234 13.075C53.5694 13.075 53.8603 13.0089 54.1065 12.8765C54.3527 12.7411 54.542 12.5626 54.6743 12.341C54.8097 12.1194 54.8774 11.8778 54.8774 11.6162V10.7807C54.8251 10.8237 54.7359 10.8637 54.6097 10.9007C54.4866 10.9376 54.3481 10.9699 54.1942 10.9976C54.0403 11.0253 53.888 11.0499 53.7372 11.0715C53.5863 11.093 53.4555 11.1115 53.3448 11.1269C53.0955 11.1607 52.8723 11.2161 52.6754 11.2931C52.4784 11.37 52.323 11.4777 52.2091 11.6162C52.0952 11.7516 52.0383 11.9271 52.0383 12.1425C52.0383 12.4503 52.1506 12.6826 52.3753 12.8396C52.6 12.9966 52.8862 13.075 53.234 13.075ZM58.1044 14.1599V7.069H59.7248V8.25082H59.7986C59.9279 7.84149 60.1495 7.52603 60.4634 7.30444C60.7804 7.07977 61.142 6.96744 61.5483 6.96744C61.6406 6.96744 61.7437 6.97206 61.8576 6.98129C61.9745 6.98744 62.0715 6.99822 62.1484 7.0136V8.55089C62.0776 8.52627 61.9653 8.50473 61.8114 8.48626C61.6606 8.46472 61.5144 8.45395 61.3728 8.45395C61.0681 8.45395 60.7942 8.52012 60.5511 8.65245C60.311 8.78172 60.1218 8.96176 59.9833 9.19258C59.8448 9.42341 59.7755 9.68962 59.7755 9.99123V14.1599H58.1044Z" fill="#828FFF"/>
<defs>
<clipPath id="clip0_1_130">
<rect width="16" height="16" fill="white" transform="translate(0 1.65991)"/>
</clipPath>
</defs>
</svg>
