<svg width="238" height="25" viewBox="0 0 238 25" fill="none" xmlns="http://www.w3.org/2000/svg">
<g clip-path="url(#clip0_1_331)">
<path d="M0.220574 12.0243C0.180524 11.8536 0.38392 11.746 0.507922 11.87L7.08016 18.4423C7.20416 18.5663 7.09663 18.7697 6.9259 18.7296C3.60927 17.9516 0.998602 15.3409 0.220574 12.0243ZM0.000340442 9.39023C-0.00283543 9.44122 0.0163374 9.49101 0.0524633 9.52714L9.42305 18.8977C9.45918 18.9338 9.50897 18.9531 9.55996 18.9498C9.98642 18.9233 10.4048 18.867 10.8132 18.7832C10.9508 18.7549 10.9986 18.5859 10.8993 18.4865L0.463671 8.05092C0.364336 7.95158 0.19526 7.99939 0.167 8.137C0.083135 8.54535 0.0269021 8.96377 0.000340442 9.39023ZM0.757967 6.29717C0.727999 6.36445 0.743263 6.44307 0.795344 6.49517L12.455 18.1548C12.5071 18.2069 12.5857 18.2222 12.653 18.1922C12.9745 18.049 13.2861 17.8875 13.5864 17.7091C13.6858 17.6501 13.7011 17.5135 13.6194 17.4318L1.51842 5.3308C1.43668 5.24906 1.30013 5.2644 1.24109 5.36378C1.06265 5.66409 0.901168 5.97567 0.757967 6.29717ZM2.27857 4.20351C2.21195 4.1369 2.20783 4.03005 2.27059 3.95978C3.92031 2.11287 6.32005 0.950195 8.99134 0.950195C13.9667 0.950195 18 4.98351 18 9.95885C18 12.6301 16.8373 15.0299 14.9904 16.6796C14.9202 16.7424 14.8133 16.7382 14.7467 16.6716L2.27857 4.20351Z" fill="#F7F8F8"/>
</g>
<path d="M27.1186 17.9502V7.76838H28.6548V16.6278H33.2685V17.9502H27.1186ZM34.9016 17.9502V10.3138H36.3881V17.9502H34.9016ZM35.6523 9.13556C35.3938 9.13556 35.1718 9.04939 34.9862 8.87704C34.8039 8.70138 34.7127 8.49257 34.7127 8.25062C34.7127 8.00536 34.8039 7.79655 34.9862 7.6242C35.1718 7.44854 35.3938 7.36071 35.6523 7.36071C35.9109 7.36071 36.1313 7.44854 36.3136 7.6242C36.4992 7.79655 36.592 8.00536 36.592 8.25062C36.592 8.49257 36.4992 8.70138 36.3136 8.87704C36.1313 9.04939 35.9109 9.13556 35.6523 9.13556ZM39.8745 13.4161V17.9502H38.388V10.3138H39.8148V11.5567H39.9093C40.0849 11.1524 40.36 10.8276 40.7346 10.5823C41.1124 10.337 41.588 10.2144 42.1614 10.2144C42.6818 10.2144 43.1375 10.3238 43.5286 10.5425C43.9197 10.758 44.223 11.0795 44.4384 11.507C44.6538 11.9346 44.7615 12.4632 44.7615 13.093V17.9502H43.275V13.2719C43.275 12.7184 43.1309 12.2859 42.8425 11.9743C42.5542 11.6595 42.1581 11.502 41.6543 11.502C41.3096 11.502 41.003 11.5766 40.7346 11.7258C40.4694 11.8749 40.2589 12.0937 40.1032 12.382C39.9507 12.6671 39.8745 13.0117 39.8745 13.4161ZM50.0463 18.1043C49.294 18.1043 48.646 17.9436 48.1025 17.6221C47.5622 17.2973 47.1446 16.8415 46.8496 16.2549C46.5579 15.6649 46.4121 14.9739 46.4121 14.1817C46.4121 13.3995 46.5579 12.7101 46.8496 12.1135C47.1446 11.517 47.5556 11.0513 48.0826 10.7165C48.6129 10.3818 49.2327 10.2144 49.9419 10.2144C50.3728 10.2144 50.7904 10.2857 51.1948 10.4282C51.5991 10.5707 51.9621 10.7944 52.2836 11.0993C52.6051 11.4043 52.8586 11.8003 53.0442 12.2876C53.2298 12.7715 53.3226 13.3598 53.3226 14.0525V14.5795H47.2523V13.4658H51.8659C51.8659 13.0747 51.7864 12.7284 51.6273 12.4268C51.4682 12.1218 51.2445 11.8815 50.9561 11.7059C50.6711 11.5302 50.3364 11.4424 49.9519 11.4424C49.5343 11.4424 49.1697 11.5451 48.8581 11.7506C48.5499 11.9528 48.3113 12.218 48.1422 12.5461C47.9765 12.8709 47.8936 13.2239 47.8936 13.605V14.4751C47.8936 14.9855 47.9831 15.4197 48.1621 15.7776C48.3444 16.1356 48.598 16.409 48.9228 16.5979C49.2476 16.7835 49.6271 16.8763 50.0613 16.8763C50.343 16.8763 50.5998 16.8366 50.8319 16.757C51.0639 16.6742 51.2644 16.5515 51.4334 16.3891C51.6025 16.2267 51.7317 16.0262 51.8212 15.7876L53.2282 16.0411C53.1155 16.4554 52.9133 16.8183 52.6216 17.1299C52.3333 17.4381 51.9703 17.6784 51.5328 17.8508C51.0987 18.0198 50.6032 18.1043 50.0463 18.1043ZM57.1942 18.1192C56.7103 18.1192 56.2728 18.0297 55.8817 17.8508C55.4906 17.6685 55.1808 17.405 54.9521 17.0603C54.7267 16.7156 54.614 16.293 54.614 15.7925C54.614 15.3617 54.6969 15.007 54.8626 14.7286C55.0283 14.4502 55.252 14.2298 55.5337 14.0674C55.8155 13.905 56.1303 13.7823 56.4783 13.6995C56.8263 13.6166 57.181 13.5537 57.5423 13.5106C57.9996 13.4575 58.3709 13.4144 58.6559 13.3813C58.9409 13.3448 59.1481 13.2868 59.2773 13.2073C59.4066 13.1278 59.4712 12.9985 59.4712 12.8195V12.7847C59.4712 12.3505 59.3486 12.0141 59.1033 11.7755C58.8614 11.5368 58.5001 11.4175 58.0195 11.4175C57.5191 11.4175 57.1246 11.5286 56.8363 11.7506C56.5513 11.9694 56.354 12.213 56.2447 12.4814L54.8477 12.1633C55.0134 11.6992 55.2553 11.3247 55.5735 11.0397C55.895 10.7513 56.2646 10.5425 56.6822 10.4133C57.0998 10.2807 57.5389 10.2144 57.9996 10.2144C58.3046 10.2144 58.6277 10.2509 58.9691 10.3238C59.3138 10.3934 59.6353 10.5226 59.9336 10.7116C60.2352 10.9005 60.4821 11.1706 60.6744 11.5219C60.8666 11.8699 60.9627 12.3224 60.9627 12.8792V17.9502H59.511V16.9062H59.4513C59.3552 17.0984 59.2111 17.2873 59.0188 17.4729C58.8266 17.6585 58.5797 17.8126 58.2781 17.9353C57.9764 18.0579 57.6152 18.1192 57.1942 18.1192ZM57.5174 16.926C57.9284 16.926 58.2797 16.8448 58.5714 16.6824C58.8664 16.52 59.0901 16.3079 59.2425 16.0461C59.3983 15.7809 59.4762 15.4975 59.4762 15.1959V14.2116C59.4232 14.2646 59.3204 14.3143 59.168 14.3607C59.0188 14.4038 58.8481 14.4419 58.6559 14.4751C58.4637 14.5049 58.2764 14.5331 58.0941 14.5596C57.9118 14.5828 57.7594 14.6027 57.6367 14.6192C57.3484 14.6557 57.0849 14.717 56.8462 14.8032C56.6109 14.8894 56.422 15.0136 56.2795 15.176C56.1403 15.3351 56.0707 15.5473 56.0707 15.8124C56.0707 16.1803 56.2066 16.4587 56.4783 16.6476C56.7501 16.8332 57.0965 16.926 57.5174 16.926ZM62.9426 17.9502V10.3138H64.3794V11.5269H64.459C64.5982 11.1159 64.8435 10.7928 65.1948 10.5574C65.5494 10.3188 65.9505 10.1995 66.3979 10.1995C66.4907 10.1995 66.6001 10.2028 66.726 10.2094C66.8553 10.2161 66.9564 10.2243 67.0293 10.2343V11.6562C66.9696 11.6396 66.8636 11.6214 66.7111 11.6015C66.5587 11.5783 66.4062 11.5667 66.2537 11.5667C65.9024 11.5667 65.5892 11.6412 65.3141 11.7904C65.0423 11.9362 64.8269 12.1401 64.6678 12.4019C64.5087 12.6604 64.4292 12.9554 64.4292 13.2868V17.9502H62.9426ZM76.5201 12.213V13.5056H72.0059V12.213H76.5201ZM85.6218 17.9502H82.3256V7.76838H85.7262C86.7238 7.76838 87.5806 7.97221 88.2965 8.37988C89.0124 8.78424 89.561 9.36591 89.9421 10.1249C90.3266 10.8806 90.5188 11.7871 90.5188 12.8444C90.5188 13.905 90.3249 14.8164 89.9371 15.5787C89.5527 16.3411 88.9959 16.9277 88.2667 17.3387C87.5375 17.7464 86.6559 17.9502 85.6218 17.9502ZM83.8619 16.6079H85.5373C86.3129 16.6079 86.9575 16.462 87.4712 16.1704C87.985 15.8754 88.3694 15.4495 88.6246 14.8927C88.8799 14.3325 89.0075 13.6498 89.0075 12.8444C89.0075 12.0456 88.8799 11.3678 88.6246 10.811C88.3728 10.2542 87.9966 9.83159 87.4961 9.54323C86.9956 9.25488 86.3742 9.11071 85.6317 9.11071H83.8619V16.6079ZM95.601 18.1043C94.8487 18.1043 94.2007 17.9436 93.6571 17.6221C93.1169 17.2973 92.6993 16.8415 92.4043 16.2549C92.1126 15.6649 91.9668 14.9739 91.9668 14.1817C91.9668 13.3995 92.1126 12.7101 92.4043 12.1135C92.6993 11.517 93.1103 11.0513 93.6373 10.7165C94.1676 10.3818 94.7873 10.2144 95.4966 10.2144C95.9275 10.2144 96.3451 10.2857 96.7495 10.4282C97.1538 10.5707 97.5167 10.7944 97.8382 11.0993C98.1597 11.4043 98.4133 11.8003 98.5989 12.2876C98.7845 12.7715 98.8773 13.3598 98.8773 14.0525V14.5795H92.807V13.4658H97.4206C97.4206 13.0747 97.3411 12.7284 97.182 12.4268C97.0229 12.1218 96.7992 11.8815 96.5108 11.7059C96.2258 11.5302 95.891 11.4424 95.5066 11.4424C95.089 11.4424 94.7244 11.5451 94.4128 11.7506C94.1046 11.9528 93.8659 12.218 93.6969 12.5461C93.5312 12.8709 93.4483 13.2239 93.4483 13.605V14.4751C93.4483 14.9855 93.5378 15.4197 93.7168 15.7776C93.8991 16.1356 94.1526 16.409 94.4775 16.5979C94.8023 16.7835 95.1818 16.8763 95.6159 16.8763C95.8977 16.8763 96.1545 16.8366 96.3865 16.757C96.6185 16.6742 96.8191 16.5515 96.9881 16.3891C97.1571 16.2267 97.2864 16.0262 97.3759 15.7876L98.7828 16.0411C98.6702 16.4554 98.468 16.8183 98.1763 17.1299C97.888 17.4381 97.525 17.6784 97.0875 17.8508C96.6533 18.0198 96.1578 18.1043 95.601 18.1043ZM106.249 12.1782L104.902 12.4168C104.845 12.2445 104.756 12.0804 104.633 11.9246C104.514 11.7689 104.351 11.6412 104.146 11.5418C103.94 11.4424 103.684 11.3927 103.375 11.3927C102.954 11.3927 102.603 11.4871 102.321 11.676C102.04 11.8617 101.899 12.1019 101.899 12.3969C101.899 12.6521 101.993 12.8576 102.182 13.0134C102.371 13.1692 102.676 13.2968 103.097 13.3962L104.31 13.6746C105.013 13.837 105.536 14.0873 105.881 14.4253C106.226 14.7634 106.398 15.2026 106.398 15.7428C106.398 16.2002 106.266 16.6079 106 16.9658C105.739 17.3205 105.372 17.5989 104.902 17.801C104.434 18.0032 103.892 18.1043 103.276 18.1043C102.421 18.1043 101.723 17.922 101.183 17.5574C100.643 17.1895 100.311 16.6675 100.189 15.9914L101.625 15.7726C101.715 16.1472 101.899 16.4305 102.177 16.6228C102.456 16.8117 102.819 16.9062 103.266 16.9062C103.753 16.9062 104.143 16.8051 104.434 16.6029C104.726 16.3974 104.872 16.1472 104.872 15.8522C104.872 15.6135 104.782 15.413 104.603 15.2506C104.428 15.0882 104.158 14.9656 103.793 14.8827L102.5 14.5993C101.788 14.4369 101.261 14.1784 100.919 13.8238C100.581 13.4691 100.412 13.02 100.412 12.4765C100.412 12.0257 100.538 11.6313 100.79 11.2932C101.042 10.9552 101.39 10.6917 101.834 10.5028C102.278 10.3105 102.787 10.2144 103.36 10.2144C104.186 10.2144 104.835 10.3934 105.309 10.7513C105.783 11.106 106.096 11.5816 106.249 12.1782ZM108.032 17.9502V10.3138H109.519V17.9502H108.032ZM108.783 9.13556C108.525 9.13556 108.303 9.04939 108.117 8.87704C107.935 8.70138 107.844 8.49257 107.844 8.25062C107.844 8.00536 107.935 7.79655 108.117 7.6242C108.303 7.44854 108.525 7.36071 108.783 7.36071C109.042 7.36071 109.262 7.44854 109.444 7.6242C109.63 7.79655 109.723 8.00536 109.723 8.25062C109.723 8.49257 109.63 8.70138 109.444 8.87704C109.262 9.04939 109.042 9.13556 108.783 9.13556ZM114.721 20.9729C114.114 20.9729 113.592 20.8934 113.154 20.7343C112.72 20.5752 112.366 20.3647 112.091 20.1029C111.815 19.8411 111.61 19.5544 111.474 19.2428L112.752 18.7158C112.841 18.8617 112.961 19.0158 113.11 19.1782C113.262 19.3439 113.468 19.4848 113.726 19.6008C113.988 19.7168 114.324 19.7748 114.735 19.7748C115.299 19.7748 115.765 19.6372 116.132 19.3621C116.5 19.0903 116.684 18.6562 116.684 18.0596V16.5581H116.59C116.5 16.7206 116.371 16.9012 116.202 17.1001C116.036 17.2989 115.808 17.4713 115.516 17.6171C115.224 17.7629 114.845 17.8358 114.377 17.8358C113.774 17.8358 113.231 17.695 112.747 17.4133C112.266 17.1282 111.885 16.709 111.603 16.1555C111.325 15.5986 111.186 14.9142 111.186 14.1022C111.186 13.2902 111.323 12.5941 111.598 12.0141C111.877 11.4341 112.258 10.99 112.742 10.6817C113.226 10.3702 113.774 10.2144 114.387 10.2144C114.861 10.2144 115.244 10.2939 115.536 10.453C115.828 10.6088 116.055 10.7911 116.217 10.9999C116.383 11.2087 116.51 11.3927 116.6 11.5518H116.709V10.3138H118.166V18.1192C118.166 18.7755 118.013 19.3141 117.708 19.735C117.404 20.1559 116.991 20.4675 116.471 20.6697C115.953 20.8718 115.37 20.9729 114.721 20.9729ZM114.706 16.6029C115.133 16.6029 115.494 16.5035 115.789 16.3046C116.088 16.1024 116.313 15.8141 116.466 15.4395C116.621 15.0617 116.699 14.6093 116.699 14.0823C116.699 13.5686 116.623 13.1162 116.471 12.7251C116.318 12.334 116.094 12.029 115.799 11.8103C115.504 11.5882 115.14 11.4772 114.706 11.4772C114.258 11.4772 113.885 11.5932 113.587 11.8252C113.289 12.0539 113.063 12.3654 112.911 12.7599C112.762 13.1543 112.687 13.5951 112.687 14.0823C112.687 14.5828 112.763 15.0219 112.916 15.3998C113.068 15.7776 113.294 16.0726 113.592 16.2847C113.894 16.4968 114.265 16.6029 114.706 16.6029ZM121.646 13.4161V17.9502H120.159V10.3138H121.586V11.5567H121.681C121.856 11.1524 122.132 10.8276 122.506 10.5823C122.884 10.337 123.359 10.2144 123.933 10.2144C124.453 10.2144 124.909 10.3238 125.3 10.5425C125.691 10.758 125.994 11.0795 126.21 11.507C126.425 11.9346 126.533 12.4632 126.533 13.093V17.9502H125.047V13.2719C125.047 12.7184 124.902 12.2859 124.614 11.9743C124.326 11.6595 123.93 11.502 123.426 11.502C123.081 11.502 122.775 11.5766 122.506 11.7258C122.241 11.8749 122.03 12.0937 121.875 12.382C121.722 12.6671 121.646 13.0117 121.646 13.4161ZM131.818 18.1043C131.065 18.1043 130.417 17.9436 129.874 17.6221C129.334 17.2973 128.916 16.8415 128.621 16.2549C128.329 15.6649 128.184 14.9739 128.184 14.1817C128.184 13.3995 128.329 12.7101 128.621 12.1135C128.916 11.517 129.327 11.0513 129.854 10.7165C130.384 10.3818 131.004 10.2144 131.713 10.2144C132.144 10.2144 132.562 10.2857 132.966 10.4282C133.371 10.5707 133.734 10.7944 134.055 11.0993C134.377 11.4043 134.63 11.8003 134.816 12.2876C135.001 12.7715 135.094 13.3598 135.094 14.0525V14.5795H129.024V13.4658H133.637C133.637 13.0747 133.558 12.7284 133.399 12.4268C133.24 12.1218 133.016 11.8815 132.728 11.7059C132.443 11.5302 132.108 11.4424 131.723 11.4424C131.306 11.4424 130.941 11.5451 130.63 11.7506C130.321 11.9528 130.083 12.218 129.914 12.5461C129.748 12.8709 129.665 13.2239 129.665 13.605V14.4751C129.665 14.9855 129.755 15.4197 129.934 15.7776C130.116 16.1356 130.369 16.409 130.694 16.5979C131.019 16.7835 131.399 16.8763 131.833 16.8763C132.114 16.8763 132.371 16.8366 132.603 16.757C132.835 16.6742 133.036 16.5515 133.205 16.3891C133.374 16.2267 133.503 16.0262 133.593 15.7876L135 16.0411C134.887 16.4554 134.685 16.8183 134.393 17.1299C134.105 17.4381 133.742 17.6784 133.304 17.8508C132.87 18.0198 132.375 18.1043 131.818 18.1043ZM139.602 18.0993C138.986 18.0993 138.435 17.9419 137.952 17.627C137.471 17.3089 137.093 16.8564 136.818 16.2698C136.546 15.6798 136.41 14.9722 136.41 14.1469C136.41 13.3216 136.548 12.6157 136.823 12.029C137.101 11.4424 137.483 10.9933 137.966 10.6817C138.45 10.3702 138.999 10.2144 139.612 10.2144C140.086 10.2144 140.467 10.2939 140.756 10.453C141.047 10.6088 141.273 10.7911 141.432 10.9999C141.594 11.2087 141.72 11.3927 141.809 11.5518H141.899V7.76838H143.385V17.9502H141.934V16.762H141.809C141.72 16.9244 141.591 17.11 141.422 17.3188C141.256 17.5276 141.027 17.7099 140.736 17.8657C140.444 18.0215 140.066 18.0993 139.602 18.0993ZM139.93 16.8316C140.358 16.8316 140.719 16.7189 141.014 16.4935C141.312 16.2648 141.538 15.9483 141.69 15.5439C141.846 15.1396 141.924 14.6689 141.924 14.132C141.924 13.6017 141.848 13.1377 141.695 12.74C141.543 12.3422 141.319 12.0323 141.024 11.8103C140.729 11.5882 140.364 11.4772 139.93 11.4772C139.483 11.4772 139.11 11.5932 138.812 11.8252C138.513 12.0572 138.288 12.3737 138.135 12.7748C137.986 13.1758 137.912 13.6282 137.912 14.132C137.912 14.6424 137.988 15.1015 138.14 15.5091C138.293 15.9168 138.518 16.24 138.817 16.4786C139.118 16.7139 139.489 16.8316 139.93 16.8316ZM151.325 17.9502L148.501 7.76838H150.117L152.101 15.6533H152.195L154.258 7.76838H155.859L157.922 15.6583H158.017L159.996 7.76838H161.616L158.787 17.9502H157.241L155.099 10.3238H155.019L152.876 17.9502H151.325ZM165.362 18.1043C164.646 18.1043 164.022 17.9403 163.488 17.6121C162.954 17.284 162.54 16.825 162.245 16.235C161.95 15.645 161.803 14.9556 161.803 14.1668C161.803 13.3747 161.95 12.682 162.245 12.0887C162.54 11.4954 162.954 11.0347 163.488 10.7066C164.022 10.3785 164.646 10.2144 165.362 10.2144C166.078 10.2144 166.703 10.3785 167.237 10.7066C167.77 11.0347 168.185 11.4954 168.48 12.0887C168.775 12.682 168.922 13.3747 168.922 14.1668C168.922 14.9556 168.775 15.645 168.48 16.235C168.185 16.825 167.77 17.284 167.237 17.6121C166.703 17.9403 166.078 18.1043 165.362 18.1043ZM165.367 16.8564C165.831 16.8564 166.216 16.7338 166.521 16.4885C166.826 16.2433 167.051 15.9168 167.197 15.5091C167.346 15.1015 167.421 14.6524 167.421 14.1618C167.421 13.6746 167.346 13.2272 167.197 12.8195C167.051 12.4085 166.826 12.0787 166.521 11.8302C166.216 11.5816 165.831 11.4573 165.367 11.4573C164.9 11.4573 164.512 11.5816 164.204 11.8302C163.899 12.0787 163.672 12.4085 163.523 12.8195C163.377 13.2272 163.304 13.6746 163.304 14.1618C163.304 14.6524 163.377 15.1015 163.523 15.5091C163.672 15.9168 163.899 16.2433 164.204 16.4885C164.512 16.7338 164.9 16.8564 165.367 16.8564ZM170.581 17.9502V10.3138H172.018V11.5269H172.098C172.237 11.1159 172.482 10.7928 172.833 10.5574C173.188 10.3188 173.589 10.1995 174.037 10.1995C174.129 10.1995 174.239 10.2028 174.365 10.2094C174.494 10.2161 174.595 10.2243 174.668 10.2343V11.6562C174.608 11.6396 174.502 11.6214 174.35 11.6015C174.197 11.5783 174.045 11.5667 173.892 11.5667C173.541 11.5667 173.228 11.6412 172.953 11.7904C172.681 11.9362 172.466 12.1401 172.306 12.4019C172.147 12.6604 172.068 12.9554 172.068 13.2868V17.9502H170.581ZM177.441 7.76838V17.9502H175.954V7.76838H177.441ZM182.299 18.0993C181.683 18.0993 181.133 17.9419 180.649 17.627C180.168 17.3089 179.79 16.8564 179.515 16.2698C179.243 15.6798 179.108 14.9722 179.108 14.1469C179.108 13.3216 179.245 12.6157 179.52 12.029C179.799 11.4424 180.18 10.9933 180.664 10.6817C181.148 10.3702 181.696 10.2144 182.309 10.2144C182.783 10.2144 183.164 10.2939 183.453 10.453C183.744 10.6088 183.97 10.7911 184.129 10.9999C184.291 11.2087 184.417 11.3927 184.507 11.5518H184.596V7.76838H186.083V17.9502H184.631V16.762H184.507C184.417 16.9244 184.288 17.11 184.119 17.3188C183.953 17.5276 183.725 17.7099 183.433 17.8657C183.141 18.0215 182.763 18.0993 182.299 18.0993ZM182.627 16.8316C183.055 16.8316 183.416 16.7189 183.711 16.4935C184.01 16.2648 184.235 15.9483 184.387 15.5439C184.543 15.1396 184.621 14.6689 184.621 14.132C184.621 13.6017 184.545 13.1377 184.392 12.74C184.24 12.3422 184.016 12.0323 183.721 11.8103C183.426 11.5882 183.062 11.4772 182.627 11.4772C182.18 11.4772 181.807 11.5932 181.509 11.8252C181.211 12.0572 180.985 12.3737 180.833 12.7748C180.684 13.1758 180.609 13.6282 180.609 14.132C180.609 14.6424 180.685 15.1015 180.838 15.5091C180.99 15.9168 181.216 16.24 181.514 16.4786C181.815 16.7139 182.187 16.8316 182.627 16.8316ZM189.86 17.9502L187.613 10.3138H189.149L190.645 15.9218H190.72L192.221 10.3138H193.758L195.249 15.8969H195.324L196.81 10.3138H198.346L196.104 17.9502H194.588L193.037 12.4367H192.922L191.371 17.9502H189.86ZM199.757 17.9502V10.3138H201.244V17.9502H199.757ZM200.508 9.13556C200.249 9.13556 200.027 9.04939 199.842 8.87704C199.659 8.70138 199.568 8.49257 199.568 8.25062C199.568 8.00536 199.659 7.79655 199.842 7.6242C200.027 7.44854 200.249 7.36071 200.508 7.36071C200.766 7.36071 200.987 7.44854 201.169 7.6242C201.355 7.79655 201.447 8.00536 201.447 8.25062C201.447 8.49257 201.355 8.70138 201.169 8.87704C200.987 9.04939 200.766 9.13556 200.508 9.13556ZM206.102 18.0993C205.486 18.0993 204.935 17.9419 204.452 17.627C203.971 17.3089 203.593 16.8564 203.318 16.2698C203.046 15.6798 202.91 14.9722 202.91 14.1469C202.91 13.3216 203.048 12.6157 203.323 12.029C203.601 11.4424 203.983 10.9933 204.466 10.6817C204.95 10.3702 205.499 10.2144 206.112 10.2144C206.586 10.2144 206.967 10.2939 207.256 10.453C207.547 10.6088 207.773 10.7911 207.932 10.9999C208.094 11.2087 208.22 11.3927 208.309 11.5518H208.399V7.76838H209.885V17.9502H208.434V16.762H208.309C208.22 16.9244 208.091 17.11 207.922 17.3188C207.756 17.5276 207.527 17.7099 207.236 17.8657C206.944 18.0215 206.566 18.0993 206.102 18.0993ZM206.43 16.8316C206.858 16.8316 207.219 16.7189 207.514 16.4935C207.812 16.2648 208.038 15.9483 208.19 15.5439C208.346 15.1396 208.424 14.6689 208.424 14.132C208.424 13.6017 208.348 13.1377 208.195 12.74C208.043 12.3422 207.819 12.0323 207.524 11.8103C207.229 11.5882 206.864 11.4772 206.43 11.4772C205.983 11.4772 205.61 11.5932 205.312 11.8252C205.013 12.0572 204.788 12.3737 204.635 12.7748C204.486 13.1758 204.412 13.6282 204.412 14.132C204.412 14.6424 204.488 15.1015 204.64 15.5091C204.793 15.9168 205.018 16.24 205.317 16.4786C205.618 16.7139 205.989 16.8316 206.43 16.8316ZM215.298 18.1043C214.546 18.1043 213.898 17.9436 213.354 17.6221C212.814 17.2973 212.397 16.8415 212.102 16.2549C211.81 15.6649 211.664 14.9739 211.664 14.1817C211.664 13.3995 211.81 12.7101 212.102 12.1135C212.397 11.517 212.808 11.0513 213.335 10.7165C213.865 10.3818 214.485 10.2144 215.194 10.2144C215.625 10.2144 216.042 10.2857 216.447 10.4282C216.851 10.5707 217.214 10.7944 217.536 11.0993C217.857 11.4043 218.111 11.8003 218.296 12.2876C218.482 12.7715 218.575 13.3598 218.575 14.0525V14.5795H212.504V13.4658H217.118C217.118 13.0747 217.038 12.7284 216.879 12.4268C216.72 12.1218 216.496 11.8815 216.208 11.7059C215.923 11.5302 215.588 11.4424 215.204 11.4424C214.786 11.4424 214.422 11.5451 214.11 11.7506C213.802 11.9528 213.563 12.218 213.394 12.5461C213.228 12.8709 213.146 13.2239 213.146 13.605V14.4751C213.146 14.9855 213.235 15.4197 213.414 15.7776C213.596 16.1356 213.85 16.409 214.175 16.5979C214.5 16.7835 214.879 16.8763 215.313 16.8763C215.595 16.8763 215.852 16.8366 216.084 16.757C216.316 16.6742 216.516 16.5515 216.685 16.3891C216.854 16.2267 216.984 16.0262 217.073 15.7876L218.48 16.0411C218.367 16.4554 218.165 16.8183 217.874 17.1299C217.585 17.4381 217.222 17.6784 216.785 17.8508C216.351 18.0198 215.855 18.1043 215.298 18.1043Z" fill="#8A8F98"/>
<defs>
<clipPath id="clip0_1_331">
<rect width="18" height="18" fill="white" transform="translate(0 0.950195)"/>
</clipPath>
</defs>
</svg>
