<svg width="486" height="331" viewBox="0 0 486 331" fill="none" xmlns="http://www.w3.org/2000/svg">
<g clip-path="url(#clip0_1_92)">
<g clip-path="url(#clip1_1_92)">
<path fill-rule="evenodd" clip-rule="evenodd" d="M254.4 120.396C258.597 120.396 262 123.722 262 127.824V142.681C262 146.784 258.597 150.11 254.4 150.11H231.6C227.403 150.11 224 146.784 224 142.681V127.824C224 123.722 227.403 120.396 231.6 120.396H254.4ZM243 127.824C239.852 127.824 237.3 130.319 237.3 133.396C237.3 136.473 239.852 138.967 243 138.967C246.148 138.967 248.7 136.473 248.7 133.396C248.7 130.319 246.148 127.824 243 127.824ZM243 98.1101C249.296 98.1101 254.4 103.099 254.4 109.253V116.681H248.7V109.253C248.7 106.176 246.148 103.681 243 103.681C239.852 103.681 237.3 106.176 237.3 109.253V116.681H231.6V109.253C231.6 103.099 236.704 98.1101 243 98.1101Z" fill="url(#paint0_linear_1_92)"/>
<path opacity="0.05" d="M243 369.86C378.724 369.86 488.75 259.834 488.75 124.11C488.75 -11.6139 378.724 -121.64 243 -121.64C107.276 -121.64 -2.75 -11.6139 -2.75 124.11C-2.75 259.834 107.276 369.86 243 369.86Z" stroke="#99BCFE" stroke-width="0.5"/>
<path opacity="0.08" d="M243 300.86C340.616 300.86 419.75 221.726 419.75 124.11C419.75 26.4938 340.616 -52.6399 243 -52.6399C145.384 -52.6399 66.25 26.4938 66.25 124.11C66.25 221.726 145.384 300.86 243 300.86Z" stroke="#99BCFE" stroke-width="0.5"/>
<path opacity="0.1" d="M243 239.86C306.927 239.86 358.75 188.037 358.75 124.11C358.75 60.1831 306.927 8.36011 243 8.36011C179.073 8.36011 127.25 60.1831 127.25 124.11C127.25 188.037 179.073 239.86 243 239.86Z" stroke="#99BCFE" stroke-width="0.5"/>
<path opacity="0.15" d="M243 191.86C280.417 191.86 310.75 161.527 310.75 124.11C310.75 86.6928 280.417 56.3601 243 56.3601C205.583 56.3601 175.25 86.6928 175.25 124.11C175.25 161.527 205.583 191.86 243 191.86Z" stroke="#99BCFE" stroke-width="0.5"/>
</g>
</g>
<defs>
<linearGradient id="paint0_linear_1_92" x1="243" y1="98.1101" x2="243" y2="150.11" gradientUnits="userSpaceOnUse">
<stop stop-color="#6B84AF"/>
<stop offset="1" stop-color="#99BCFE"/>
</linearGradient>
<clipPath id="clip0_1_92">
<rect width="486" height="412" fill="white" transform="translate(0 -81.8899)"/>
</clipPath>
<clipPath id="clip1_1_92">
<rect width="492" height="492" fill="white" transform="translate(-3 -121.89)"/>
</clipPath>
</defs>
</svg>
