<svg width="58" height="20" viewBox="0 0 58 20" fill="none" xmlns="http://www.w3.org/2000/svg">
<path d="M3.95147 11.8501C3.95147 12.6638 3.29435 13.3214 2.4813 13.3214C1.66826 13.3214 1.01114 12.6638 1.01114 11.8501C1.01114 11.0364 1.66826 10.3788 2.4813 10.3788H3.95147V11.8501ZM4.68655 11.8501C4.68655 11.0364 5.34368 10.3788 6.15672 10.3788C6.96977 10.3788 7.62689 11.0364 7.62689 11.8501V15.5284C7.62689 16.3421 6.96977 16.9998 6.15672 16.9998C5.34368 16.9998 4.68655 16.3421 4.68655 15.5284V11.8501Z" fill="#99BCFE"/>
<path d="M6.15672 5.94243C5.34368 5.94243 4.68655 5.28479 4.68655 4.47109C4.68655 3.6574 5.34368 2.99976 6.15672 2.99976C6.96977 2.99976 7.62689 3.6574 7.62689 4.47109V5.94243H6.15672ZM6.15672 6.68925C6.96977 6.68925 7.62689 7.34689 7.62689 8.16058C7.62689 8.97428 6.96977 9.63192 6.15672 9.63192H2.47017C1.65712 9.63192 1 8.97428 1 8.16058C1 7.34689 1.65712 6.68925 2.47017 6.68925H6.15672Z" fill="#99BCFE"/>
<path d="M12.0485 8.16058C12.0485 7.34689 12.7056 6.68925 13.5187 6.68925C14.3317 6.68925 14.9889 7.34689 14.9889 8.16058C14.9889 8.97428 14.3317 9.63192 13.5187 9.63192H12.0485V8.16058ZM11.3134 8.16058C11.3134 8.97428 10.6563 9.63192 9.84328 9.63192C9.03023 9.63192 8.37311 8.97428 8.37311 8.16058V4.47109C8.37311 3.6574 9.03023 2.99976 9.84328 2.99976C10.6563 2.99976 11.3134 3.6574 11.3134 4.47109V8.16058Z" fill="#99BCFE"/>
<path d="M9.84328 14.0571C10.6563 14.0571 11.3134 14.7147 11.3134 15.5284C11.3134 16.3421 10.6563 16.9998 9.84328 16.9998C9.03023 16.9998 8.37311 16.3421 8.37311 15.5284V14.0571H9.84328ZM9.84328 13.3214C9.03023 13.3214 8.37311 12.6638 8.37311 11.8501C8.37311 11.0364 9.03023 10.3788 9.84328 10.3788H13.5298C14.3429 10.3788 15 11.0364 15 11.8501C15 12.6638 14.3429 13.3214 13.5298 13.3214H9.84328Z" fill="#99BCFE"/>
<path d="M29.9758 7.75165C29.9334 7.35478 29.7547 7.04576 29.4396 6.8246C29.1275 6.60344 28.7216 6.49286 28.2217 6.49286C27.8703 6.49286 27.5688 6.54588 27.3174 6.65192C27.0659 6.75795 26.8735 6.90185 26.7402 7.08363C26.6069 7.2654 26.5388 7.47293 26.5357 7.7062C26.5357 7.9001 26.5797 8.06824 26.6675 8.21063C26.7584 8.35302 26.8811 8.4742 27.0356 8.57417C27.1901 8.67112 27.3613 8.75292 27.5491 8.81957C27.737 8.88622 27.9263 8.94227 28.1172 8.98771L28.9897 9.20584C29.3411 9.28764 29.6789 9.39822 30.0031 9.53758C30.3303 9.67694 30.6226 9.85265 30.8801 10.0647C31.1407 10.2768 31.3467 10.5328 31.4982 10.8327C31.6496 11.1326 31.7254 11.4841 31.7254 11.887C31.7254 12.4323 31.586 12.9125 31.3073 13.3276C31.0286 13.7396 30.6257 14.0622 30.0985 14.2955C29.5744 14.5258 28.9397 14.6409 28.1944 14.6409C27.4704 14.6409 26.8417 14.5288 26.3085 14.3046C25.7784 14.0804 25.3633 13.7532 25.0634 13.323C24.7665 12.8928 24.6059 12.3687 24.5817 11.7507H26.2404C26.2646 12.0748 26.3646 12.3445 26.5403 12.5596C26.716 12.7747 26.9447 12.9352 27.2265 13.0413C27.5113 13.1473 27.8294 13.2003 28.1808 13.2003C28.5474 13.2003 28.8685 13.1458 29.1442 13.0367C29.4229 12.9246 29.641 12.7701 29.7986 12.5732C29.9561 12.3732 30.0364 12.14 30.0394 11.8734C30.0364 11.631 29.9652 11.4311 29.8259 11.2735C29.6865 11.1129 29.4911 10.9796 29.2396 10.8736C28.9912 10.7645 28.7004 10.6676 28.3671 10.5828L27.3083 10.3101C26.5418 10.1132 25.9359 9.81478 25.4905 9.41488C25.0482 9.01195 24.8271 8.47723 24.8271 7.81072C24.8271 7.26237 24.9755 6.78219 25.2724 6.37017C25.5723 5.95815 25.9798 5.63853 26.4948 5.41131C27.0099 5.18106 27.5931 5.06594 28.2444 5.06594C28.9049 5.06594 29.4835 5.18106 29.9804 5.41131C30.4802 5.63853 30.8726 5.95512 31.1573 6.36108C31.4421 6.76401 31.5891 7.22753 31.5981 7.75165H29.9758ZM34.6808 5.19318V14.5H33.0357V5.19318H34.6808ZM38.261 14.6409C37.8187 14.6409 37.4203 14.5621 37.0658 14.4046C36.7144 14.244 36.4357 14.0077 36.2297 13.6957C36.0267 13.3836 35.9252 12.9989 35.9252 12.5414C35.9252 12.1475 35.9979 11.8219 36.1433 11.5644C36.2888 11.3068 36.4872 11.1008 36.7386 10.9463C36.9901 10.7918 37.2734 10.6752 37.5884 10.5964C37.9065 10.5146 38.2353 10.4555 38.5746 10.4192C38.9836 10.3768 39.3153 10.3389 39.5698 10.3056C39.8243 10.2692 40.0091 10.2147 40.1242 10.142C40.2423 10.0662 40.3014 9.9496 40.3014 9.79206V9.76479C40.3014 9.42245 40.1999 9.15737 39.9969 8.96953C39.794 8.7817 39.5016 8.68778 39.1199 8.68778C38.717 8.68778 38.3973 8.77564 38.161 8.95135C37.9278 9.12707 37.7702 9.33459 37.6884 9.57393L36.1524 9.3558C36.2736 8.93166 36.4736 8.5772 36.7523 8.29242C37.031 8.00462 37.3718 7.78952 37.7748 7.64713C38.1777 7.50171 38.623 7.429 39.1108 7.429C39.4471 7.429 39.7818 7.46838 40.1151 7.54715C40.4483 7.62592 40.7528 7.75619 41.0285 7.93797C41.3042 8.11671 41.5254 8.36059 41.692 8.66961C41.8616 8.97862 41.9465 9.36489 41.9465 9.82841V14.5H40.365V13.5411H40.3105C40.2105 13.735 40.0697 13.9168 39.8879 14.0865C39.7091 14.2531 39.4834 14.3879 39.2108 14.4909C38.9411 14.5909 38.6246 14.6409 38.261 14.6409ZM38.6882 13.4321C39.0184 13.4321 39.3047 13.3669 39.5471 13.2367C39.7894 13.1034 39.9757 12.9277 40.106 12.7095C40.2393 12.4914 40.306 12.2536 40.306 11.9961V11.1735C40.2545 11.216 40.1666 11.2553 40.0424 11.2917C39.9212 11.328 39.7849 11.3599 39.6334 11.3871C39.4819 11.4144 39.332 11.4386 39.1835 11.4598C39.0351 11.481 38.9063 11.4992 38.7972 11.5144C38.5518 11.5477 38.3322 11.6022 38.1383 11.678C37.9444 11.7537 37.7914 11.8597 37.6793 11.9961C37.5672 12.1294 37.5112 12.3021 37.5112 12.5141C37.5112 12.8171 37.6218 13.0458 37.8429 13.2003C38.0641 13.3548 38.3458 13.4321 38.6882 13.4321ZM46.5253 14.6363C45.8285 14.6363 45.2302 14.4833 44.7303 14.1774C44.2335 13.8714 43.8502 13.4487 43.5806 12.9095C43.314 12.3672 43.1807 11.7431 43.1807 11.0372C43.1807 10.3283 43.317 9.70269 43.5897 9.16039C43.8623 8.61507 44.2471 8.19093 44.7439 7.88798C45.2438 7.58199 45.8346 7.429 46.5162 7.429C47.0828 7.429 47.5842 7.53352 48.0204 7.74256C48.4597 7.94857 48.8096 8.24092 49.0702 8.61962C49.3307 8.99528 49.4791 9.43457 49.5155 9.93748H47.9432C47.8795 9.6012 47.7281 9.32096 47.4887 9.09677C47.2524 8.86956 46.9358 8.75595 46.539 8.75595C46.2027 8.75595 45.9073 8.84683 45.6528 9.02861C45.3983 9.20735 45.1999 9.46487 45.0575 9.80115C44.9181 10.1374 44.8485 10.5404 44.8485 11.0099C44.8485 11.4856 44.9181 11.8946 45.0575 12.2369C45.1969 12.5762 45.3923 12.8383 45.6437 13.0231C45.8982 13.2049 46.1966 13.2957 46.539 13.2957C46.7813 13.2957 46.9979 13.2503 47.1888 13.1594C47.3827 13.0655 47.5448 12.9307 47.675 12.755C47.8053 12.5793 47.8947 12.3657 47.9432 12.1142H49.5155C49.4761 12.608 49.3307 13.0458 49.0792 13.4275C48.8278 13.8062 48.4854 14.1031 48.0522 14.3182C47.619 14.5303 47.11 14.6363 46.5253 14.6363ZM52.2459 12.3096L52.2414 10.3237H52.505L55.0134 7.51989H56.9357L53.8501 10.9554H53.5093L52.2459 12.3096ZM50.7463 14.5V5.19318H52.3914V14.5H50.7463ZM55.1271 14.5L52.8549 11.3235L53.9637 10.1647L57.0948 14.5H55.1271Z" fill="#99BCFE"/>
</svg>
