<svg width="17" height="14" viewBox="0 0 17 14" fill="none" xmlns="http://www.w3.org/2000/svg">
<path d="M17 1.79814C16.3794 2.0688 15.7128 2.2517 15.0119 2.33436C15.7269 1.91299 16.2754 1.24436 16.534 0.448433C15.8651 0.839078 15.1242 1.12292 14.3357 1.27508C13.704 0.613763 12.8047 0.199707 11.8088 0.199707C9.89728 0.199707 8.34697 1.72571 8.34697 3.60872C8.34697 3.875 8.37819 4.13397 8.43615 4.38417C5.55776 4.24151 3.00786 2.88449 1.3 0.82298C1.00271 1.32776 0.831781 1.91299 0.831781 2.53626C0.831781 3.71845 1.44343 4.76237 2.37168 5.37321C1.80388 5.35493 1.27026 5.20203 0.803532 4.94672V4.99062C0.803532 6.64172 1.99637 8.01923 3.58086 8.33233C3.28952 8.40988 2.98408 8.45084 2.66896 8.45084C2.446 8.45084 2.22824 8.43035 2.01717 8.39085C2.45789 9.74425 3.73618 10.7303 5.25157 10.7566C4.06617 11.6712 2.57309 12.2161 0.951436 12.2161C0.671997 12.2161 0.396271 12.2 0.125 12.1686C1.65747 13.1365 3.47681 13.6998 5.43141 13.6998C11.8006 13.6998 15.2825 8.50717 15.2825 4.00376C15.2825 3.85744 15.2787 3.70967 15.2721 3.56337C15.9483 3.082 16.5355 2.48286 16.9985 1.80033L17 1.79814Z" fill="#8A8F98"/>
</svg>
