<svg width="17" height="17" viewBox="0 0 17 17" fill="none" xmlns="http://www.w3.org/2000/svg">
<g id="SVG">
<path id="Vector" d="M6.55401 3.18008L13.784 7.68208C13.9836 7.80669 14.1479 7.98045 14.2612 8.18672C14.3744 8.39299 14.4328 8.62488 14.4308 8.86018C14.4288 9.09549 14.3664 9.32634 14.2497 9.53065C14.1329 9.73496 13.9657 9.90589 13.764 10.0271L6.53501 14.3701C6.32628 14.4955 6.088 14.5632 5.84453 14.5663C5.60106 14.5694 5.36114 14.5078 5.14928 14.3877C4.93742 14.2677 4.76123 14.0936 4.63872 13.8832C4.51622 13.6728 4.45178 13.4336 4.45201 13.1901V4.34608C4.45221 4.1009 4.51795 3.86024 4.64244 3.64902C4.76693 3.43779 4.94563 3.2637 5.16003 3.14477C5.37443 3.02584 5.61673 2.9664 5.86183 2.97261C6.10693 2.97882 6.34591 3.05045 6.55401 3.18008Z" fill="#161618"/>
</g>
</svg>
