<svg width="89" height="20" viewBox="0 0 89 20" fill="none" xmlns="http://www.w3.org/2000/svg">
<path fill-rule="evenodd" clip-rule="evenodd" d="M3.05025 15.2798C5.78392 18.0135 10.2161 18.0135 12.9497 15.2798C15.6834 12.5462 15.6834 8.114 12.9497 5.38033C10.2161 2.64666 5.78392 2.64666 3.05025 5.38033C0.316582 8.114 0.316584 12.5462 3.05025 15.2798ZM8.75 7.50165C8.75 7.08744 8.41421 6.75165 8 6.75165C7.58579 6.75165 7.25 7.08744 7.25 7.50165V9.58008H5.17157C4.75736 9.58008 4.42157 9.91587 4.42157 10.3301C4.42157 10.7443 4.75736 11.0801 5.17157 11.0801H7.25V13.1585C7.25 13.5727 7.58579 13.9085 8 13.9085C8.41421 13.9085 8.75 13.5727 8.75 13.1585V11.0801H10.8284C11.2426 11.0801 11.5784 10.7443 11.5784 10.3301C11.5784 9.91587 11.2426 9.58008 10.8284 9.58008H8.75V7.50165Z" fill="#8A8F98"/>
<path d="M26.8766 14.8301L24.2499 5.52326H26.0631L27.74 12.3625H27.8263L29.6168 5.52326H31.2664L33.0614 12.367H33.1432L34.8201 5.52326H36.6333L34.0066 14.8301H32.3434L30.4802 8.29985H30.4075L28.5398 14.8301H26.8766ZM39.942 14.9664C39.2603 14.9664 38.6696 14.8164 38.1697 14.5165C37.6698 14.2166 37.282 13.797 37.0063 13.2577C36.7337 12.7185 36.5973 12.0883 36.5973 11.3673C36.5973 10.6463 36.7337 10.0146 37.0063 9.4723C37.282 8.93 37.6698 8.50889 38.1697 8.20897C38.6696 7.90904 39.2603 7.75908 39.942 7.75908C40.6236 7.75908 41.2144 7.90904 41.7143 8.20897C42.2142 8.50889 42.6004 8.93 42.8731 9.4723C43.1488 10.0146 43.2866 10.6463 43.2866 11.3673C43.2866 12.0883 43.1488 12.7185 42.8731 13.2577C42.6004 13.797 42.2142 14.2166 41.7143 14.5165C41.2144 14.8164 40.6236 14.9664 39.942 14.9664ZM39.9511 13.6485C40.3207 13.6485 40.6297 13.5471 40.8781 13.3441C41.1265 13.1381 41.3113 12.8624 41.4325 12.517C41.5567 12.1716 41.6189 11.7869 41.6189 11.3627C41.6189 10.9356 41.5567 10.5493 41.4325 10.2039C41.3113 9.85554 41.1265 9.57833 40.8781 9.37232C40.6297 9.16631 40.3207 9.0633 39.9511 9.0633C39.5724 9.0633 39.2573 9.16631 39.0059 9.37232C38.7574 9.57833 38.5711 9.85554 38.4469 10.2039C38.3257 10.5493 38.2651 10.9356 38.2651 11.3627C38.2651 11.7869 38.3257 12.1716 38.4469 12.517C38.5711 12.8624 38.7574 13.1381 39.0059 13.3441C39.2573 13.5471 39.5724 13.6485 39.9511 13.6485ZM44.5629 14.8301V7.84996H46.1579V9.01332H46.2306C46.3579 8.61038 46.576 8.29985 46.885 8.08173C47.1971 7.86057 47.5531 7.74999 47.953 7.74999C48.0438 7.74999 48.1453 7.75453 48.2574 7.76362C48.3726 7.76968 48.468 7.78028 48.5437 7.79543V9.3087C48.474 9.28446 48.3635 9.26326 48.212 9.24508C48.0635 9.22387 47.9196 9.21327 47.7803 9.21327C47.4803 9.21327 47.2107 9.2784 46.9714 9.40867C46.7351 9.53592 46.5488 9.71315 46.4124 9.94036C46.2761 10.1676 46.2079 10.4296 46.2079 10.7265V14.8301H44.5629ZM51.0163 12.6397L51.0117 10.6538H51.2753L53.7838 7.84996H55.706L52.6204 11.2855H52.2796L51.0163 12.6397ZM49.5166 14.8301V5.52326H51.1617V14.8301H49.5166ZM53.8974 14.8301L51.6252 11.6536L52.734 10.4948L55.8651 14.8301H53.8974ZM60.2179 7.84996V9.12238H56.0916V7.84996H60.2179ZM57.1232 14.8301V7.19103C57.1232 6.72145 57.2201 6.33064 57.414 6.01859C57.6109 5.70655 57.8745 5.47327 58.2047 5.31876C58.5349 5.16426 58.9015 5.087 59.3044 5.087C59.5892 5.087 59.8422 5.10972 60.0633 5.15517C60.2845 5.20061 60.4481 5.24151 60.5541 5.27787L60.2269 6.55028C60.1573 6.52907 60.0694 6.50787 59.9634 6.48666C59.8573 6.46242 59.7392 6.45031 59.6089 6.45031C59.3029 6.45031 59.0863 6.52453 58.9591 6.67298C58.8349 6.8184 58.7728 7.02744 58.7728 7.3001V14.8301H57.1232ZM63.0312 5.52326V14.8301H61.3862V5.52326H63.0312ZM67.6476 14.9664C66.9659 14.9664 66.3752 14.8164 65.8753 14.5165C65.3754 14.2166 64.9876 13.797 64.7119 13.2577C64.4393 12.7185 64.3029 12.0883 64.3029 11.3673C64.3029 10.6463 64.4393 10.0146 64.7119 9.4723C64.9876 8.93 65.3754 8.50889 65.8753 8.20897C66.3752 7.90904 66.9659 7.75908 67.6476 7.75908C68.3292 7.75908 68.92 7.90904 69.4199 8.20897C69.9197 8.50889 70.306 8.93 70.5787 9.4723C70.8544 10.0146 70.9922 10.6463 70.9922 11.3673C70.9922 12.0883 70.8544 12.7185 70.5787 13.2577C70.306 13.797 69.9197 14.2166 69.4199 14.5165C68.92 14.8164 68.3292 14.9664 67.6476 14.9664ZM67.6567 13.6485C68.0263 13.6485 68.3353 13.5471 68.5837 13.3441C68.8321 13.1381 69.0169 12.8624 69.1381 12.517C69.2623 12.1716 69.3244 11.7869 69.3244 11.3627C69.3244 10.9356 69.2623 10.5493 69.1381 10.2039C69.0169 9.85554 68.8321 9.57833 68.5837 9.37232C68.3353 9.16631 68.0263 9.0633 67.6567 9.0633C67.278 9.0633 66.9629 9.16631 66.7114 9.37232C66.463 9.57833 66.2767 9.85554 66.1525 10.2039C66.0313 10.5493 65.9707 10.9356 65.9707 11.3627C65.9707 11.7869 66.0313 12.1716 66.1525 12.517C66.2767 12.8624 66.463 13.1381 66.7114 13.3441C66.9629 13.5471 67.278 13.6485 67.6567 13.6485ZM73.5091 14.8301L71.5368 7.84996H73.2137L74.4407 12.7579H74.5043L75.7585 7.84996H77.4172L78.6714 12.7306H78.7396L79.9484 7.84996H81.6298L79.653 14.8301H77.9398L76.631 10.113H76.5356L75.2268 14.8301H73.5091ZM88.1752 9.69497L86.6756 9.85856C86.6332 9.70709 86.559 9.5647 86.4529 9.4314C86.3499 9.2981 86.2106 9.19055 86.0348 9.10875C85.8591 9.02695 85.644 8.98605 85.3895 8.98605C85.0472 8.98605 84.7594 9.06027 84.5261 9.20872C84.2959 9.35717 84.1823 9.54955 84.1853 9.78586C84.1823 9.98884 84.2565 10.1539 84.408 10.2812C84.5625 10.4084 84.817 10.513 85.1714 10.5947L86.362 10.8492C87.0225 10.9916 87.5133 11.2173 87.8344 11.5263C88.1586 11.8354 88.3222 12.2398 88.3252 12.7397C88.3222 13.179 88.1934 13.5668 87.9389 13.903C87.6875 14.2363 87.3376 14.4968 86.8892 14.6847C86.4408 14.8725 85.9258 14.9664 85.3441 14.9664C84.4898 14.9664 83.8021 14.7877 83.281 14.4302C82.7599 14.0697 82.4494 13.5683 82.3494 12.926L83.9535 12.7715C84.0262 13.0866 84.1808 13.3244 84.4171 13.485C84.6534 13.6455 84.9609 13.7258 85.3396 13.7258C85.7304 13.7258 86.0439 13.6455 86.2802 13.485C86.5196 13.3244 86.6392 13.1259 86.6392 12.8896C86.6392 12.6897 86.562 12.5246 86.4075 12.3943C86.256 12.264 86.0197 12.1641 85.6986 12.0944L84.5079 11.8444C83.8384 11.7051 83.3431 11.4703 83.0219 11.1401C82.7008 10.8068 82.5418 10.3857 82.5448 9.87674C82.5418 9.44654 82.6584 9.07391 82.8947 8.75883C83.134 8.44073 83.4658 8.19533 83.8899 8.02265C84.3171 7.84693 84.8094 7.75908 85.3668 7.75908C86.1848 7.75908 86.8286 7.93328 87.2982 8.28168C87.7708 8.63008 88.0631 9.10117 88.1752 9.69497Z" fill="#8A8F98"/>
</svg>
